<?xml version="1.0" encoding="UTF-8" standalone="no"?>
<!-- Created with Inkscape (http://www.inkscape.org/) -->

<svg
   version="1.1"
   id="svg2"
   width="666.66669"
   height="666.66669"
   viewBox="0 0 666.66669 666.66669"
   sodipodi:docname="11569949.svg"
   inkscape:version="1.2.2 (732a01da63, 2022-12-09)"
   xmlns:inkscape="http://www.inkscape.org/namespaces/inkscape"
   xmlns:sodipodi="http://sodipodi.sourceforge.net/DTD/sodipodi-0.dtd"
   xmlns="http://www.w3.org/2000/svg"
   xmlns:svg="http://www.w3.org/2000/svg">
  <defs
     id="defs6">
    <clipPath
       clipPathUnits="userSpaceOnUse"
       id="clipPath18">
      <path
         d="M 0,500 H 500 V 0 H 0 Z"
         id="path16" />
    </clipPath>
    <clipPath
       clipPathUnits="userSpaceOnUse"
       id="clipPath98">
      <path
         d="M 0,500 H 500 V 0 H 0 Z"
         id="path96" />
    </clipPath>
    <clipPath
       clipPathUnits="userSpaceOnUse"
       id="clipPath114">
      <path
         d="M 0,500 H 500 V 0 H 0 Z"
         id="path112" />
    </clipPath>
    <clipPath
       clipPathUnits="userSpaceOnUse"
       id="clipPath322">
      <path
         d="m 259.124,267.151 h 26.45 v -44.959 h -26.45 z"
         id="path320" />
    </clipPath>
    <clipPath
       clipPathUnits="userSpaceOnUse"
       id="clipPath422">
      <path
         d="m 198.173,230.841 h 64.873 V 111.345 h -64.873 z"
         id="path420" />
    </clipPath>
    <clipPath
       clipPathUnits="userSpaceOnUse"
       id="clipPath438">
      <path
         d="m 148.213,188.385 h 29.456 V 116.67 h -29.456 z"
         id="path436" />
    </clipPath>
    <clipPath
       clipPathUnits="userSpaceOnUse"
       id="clipPath474">
      <path
         d="M 0,500 H 500 V 0 H 0 Z"
         id="path472" />
    </clipPath>
  </defs>
  <sodipodi:namedview
     id="namedview4"
     pagecolor="#505050"
     bordercolor="#eeeeee"
     borderopacity="1"
     inkscape:showpageshadow="0"
     inkscape:pageopacity="0"
     inkscape:pagecheckerboard="0"
     inkscape:deskcolor="#505050"
     showgrid="false"
     inkscape:zoom="0.50063159"
     inkscape:cx="10.986123"
     inkscape:cy="283.64171"
     inkscape:window-width="1920"
     inkscape:window-height="1057"
     inkscape:window-x="-8"
     inkscape:window-y="-8"
     inkscape:window-maximized="1"
     inkscape:current-layer="g10">
    <inkscape:page
       x="0"
       y="0"
       id="page8"
       width="666.66669"
       height="666.66669" />
  </sodipodi:namedview>
  <g
     id="g10"
     inkscape:groupmode="layer"
     inkscape:label="Page 1"
     transform="matrix(1.3333333,0,0,-1.3333333,0,666.66667)">
    <g
       id="g12">
      <g
         id="g14"
         clip-path="url(#clipPath18)">
        <g
           id="g20"
           transform="translate(490.9299,232.8038)">
          <path
             d="m 0,0 c 0,-124.559 -141.771,-182.19 -277.852,-182.19 -136.081,0 -194.82,88.588 -175.403,223.941 17.693,123.332 87.958,181.012 224.039,181.012 C -93.135,222.763 0,124.559 0,0"
             style="fill:#ffe7df;fill-opacity:1;fill-rule:nonzero;stroke:none"
             id="path22" />
        </g>
        <g
           id="g24"
           transform="translate(157.6402,88.4103)">
          <path
             d="m 0,0 c 1.091,-5.871 4.849,-10.962 10.368,-14.972 6.745,-4.899 15.95,-6.754 23.769,-3.864 7.82,2.89 13.739,10.054 15.781,18.136 2.014,7.971 -0.352,18.069 -6.917,24.041 0,0 3.469,9.868 1.333,10.739 -0.939,0.712 -6.745,-4.266 -8.568,-6.595 l 0.066,-0.05 C 28.383,30.946 18.59,32.071 9.311,25.188 2.38,20.047 -1.988,10.699 0,0"
             style="fill:#ffffff;fill-opacity:1;fill-rule:nonzero;stroke:none"
             id="path26" />
        </g>
        <g
           id="g28"
           transform="translate(174.7916,92.6032)">
          <path
             d="m 0,0 c -0.327,-3.067 -3.191,-4.842 -6.258,-4.514 -3.066,0.327 -4.682,2.58 -4.355,5.647 0.328,3.066 2.586,5.34 5.653,5.012 C -1.893,5.818 0.327,3.067 0,0"
             style="fill:#ffe7df;fill-opacity:1;fill-rule:nonzero;stroke:none"
             id="path30" />
        </g>
        <g
           id="g32"
           transform="translate(188.1956,92.7233)">
          <path
             d="m 0,0 c -0.327,-3.067 -3.191,-4.841 -6.258,-4.514 -3.066,0.327 -4.682,2.58 -4.355,5.647 0.328,3.066 2.586,5.34 5.653,5.013 C -1.893,5.818 0.327,3.067 0,0"
             style="fill:#ffe7df;fill-opacity:1;fill-rule:nonzero;stroke:none"
             id="path34" />
        </g>
        <g
           id="g36"
           transform="translate(201.4389,92.7391)">
          <path
             d="m 0,0 c -0.327,-3.067 -3.191,-4.842 -6.258,-4.514 -3.066,0.327 -4.682,2.58 -4.355,5.647 0.328,3.066 2.586,5.34 5.653,5.012 C -1.893,5.818 0.327,3.067 0,0"
             style="fill:#ffe7df;fill-opacity:1;fill-rule:nonzero;stroke:none"
             id="path38" />
        </g>
        <g
           id="g40"
           transform="translate(242.5289,352.7791)">
          <path
             d="m 0,0 c -3.057,0 -5.535,2.478 -5.535,5.535 0,3.057 2.478,5.536 5.535,5.536 3.057,0 5.535,-2.479 5.535,-5.536 C 5.535,2.478 3.057,0 0,0 m 15.469,12.172 c -1.217,0.19 -5.04,-0.152 -5.04,-0.152 l -0.86,1.091 c 0,0 2.571,4.337 1.942,5.169 -0.629,0.833 -5.146,3.475 -5.9,3.148 C 4.856,21.102 2.594,17.913 2.594,17.913 L 1.01,18.124 c 0,0 -0.616,4.39 -2.4,4.304 -1.784,-0.085 -5.284,-1.242 -5.984,-1.694 -0.7,-0.452 0.352,-4.744 0.352,-4.744 l -1.155,-0.924 -0.497,0.238 c 0,0 -3.431,2.144 -4.411,1.409 -0.98,-0.735 -3.308,-5.514 -3.124,-6.126 0.183,-0.613 3.762,-3.186 3.762,-3.186 l -0.27,-1.225 c 0,0 -4.044,-1.225 -4.228,-2.389 -0.183,-1.164 0.552,-5.943 1.777,-6.065 1.225,-0.123 5.024,0.428 5.024,0.428 l 0.919,-1.041 c 0,0 -2.328,-4.472 -1.654,-5.269 0.673,-0.796 5.329,-3.185 6.064,-2.818 0.736,0.368 2.819,3.676 2.819,3.676 l 1.592,-0.122 c 0,0 0.858,-4.35 2.635,-4.166 1.776,0.183 5.207,1.531 5.881,2.021 0.674,0.49 -0.613,4.718 -0.613,4.718 l 1.164,1.041 c 0,0 3.431,-2.083 4.717,-1.225 1.287,0.857 3.37,4.901 3.064,5.513 -0.307,0.613 -3.431,3.186 -3.431,3.186 l 0.016,0.327 c 1.086,0.303 3.684,1.118 3.879,2.027 0.248,1.152 -0.223,5.964 -1.439,6.154"
             style="fill:#ffffff;fill-opacity:1;fill-rule:nonzero;stroke:none"
             id="path42" />
        </g>
        <g
           id="g44"
           transform="translate(360.4876,400.4972)">
          <path
             d="m 0,0 c -2.251,0 -4.077,1.825 -4.077,4.077 0,2.251 1.826,4.076 4.077,4.076 2.251,0 4.077,-1.825 4.077,-4.076 C 4.077,1.825 2.251,0 0,0 M 11.392,8.964 C 10.496,9.104 7.681,8.853 7.681,8.853 L 7.047,9.656 c 0,0 1.894,3.194 1.431,3.807 -0.464,0.613 -3.791,2.559 -4.346,2.318 -0.555,-0.24 -2.221,-2.588 -2.221,-2.588 l -1.167,0.155 c 0,0 -0.454,3.233 -1.768,3.17 -1.314,-0.063 -3.891,-0.915 -4.407,-1.248 -0.515,-0.333 0.259,-3.494 0.259,-3.494 l -0.85,-0.68 -0.366,0.175 c 0,0 -2.527,1.579 -3.249,1.038 -0.722,-0.542 -2.436,-4.061 -2.301,-4.512 0.136,-0.451 2.771,-2.346 2.771,-2.346 L -9.366,4.548 c 0,0 -2.978,-0.902 -3.113,-1.759 -0.136,-0.857 0.406,-4.377 1.308,-4.467 0.903,-0.09 3.7,0.316 3.7,0.316 l 0.677,-0.767 c 0,0 -1.715,-3.294 -1.218,-3.88 0.496,-0.587 3.925,-2.346 4.466,-2.076 0.542,0.271 2.076,2.707 2.076,2.707 l 1.173,-0.09 c 0,0 0.631,-3.203 1.94,-3.068 1.308,0.136 3.835,1.128 4.331,1.489 0.496,0.361 -0.451,3.474 -0.451,3.474 l 0.857,0.767 c 0,0 2.527,-1.534 3.474,-0.902 0.948,0.631 2.482,3.609 2.256,4.06 -0.225,0.451 -2.526,2.347 -2.526,2.347 l 0.012,0.24 c 0.799,0.223 2.713,0.823 2.857,1.493 0.182,0.849 -0.165,4.392 -1.061,4.532"
             style="fill:#ffffff;fill-opacity:1;fill-rule:nonzero;stroke:none"
             id="path46" />
        </g>
        <g
           id="g48"
           transform="translate(452.1862,211.9922)">
          <path
             d="m 0,0 c -5.036,0 -9.118,4.082 -9.118,9.118 0,5.035 4.082,9.117 9.118,9.117 5.035,0 9.118,-4.082 9.118,-9.117 C 9.118,4.082 5.035,0 0,0 M 25.48,20.049 C 23.476,20.362 17.179,19.8 17.179,19.8 l -1.417,1.796 c 0,0 4.235,7.144 3.199,8.515 -1.036,1.371 -8.477,5.723 -9.719,5.185 C 7.999,34.758 4.273,29.507 4.273,29.507 l -2.609,0.346 c 0,0 -1.015,7.231 -3.954,7.09 -2.938,-0.141 -8.703,-2.046 -9.856,-2.791 -1.153,-0.745 0.579,-7.813 0.579,-7.813 l -1.902,-1.523 -0.819,0.392 c 0,0 -5.651,3.532 -7.265,2.321 -1.615,-1.211 -5.449,-9.082 -5.147,-10.091 0.303,-1.009 6.198,-5.247 6.198,-5.247 l -0.446,-2.018 c 0,0 -6.66,-2.018 -6.962,-3.936 -0.303,-1.917 0.908,-9.788 2.926,-9.99 2.018,-0.202 8.275,0.707 8.275,0.707 l 1.513,-1.716 c 0,0 -3.834,-7.366 -2.724,-8.678 1.11,-1.312 8.779,-5.247 9.99,-4.642 1.211,0.606 4.642,6.055 4.642,6.055 l 2.623,-0.202 c 0,0 1.413,-7.165 4.339,-6.862 2.927,0.303 8.578,2.523 9.688,3.33 1.11,0.807 -1.009,7.77 -1.009,7.77 l 1.917,1.716 c 0,0 5.651,-3.431 7.77,-2.019 2.119,1.413 5.55,8.073 5.046,9.082 -0.505,1.009 -5.652,5.247 -5.652,5.247 l 0.027,0.539 c 1.789,0.499 6.068,1.841 6.39,3.339 0.408,1.897 -0.367,9.823 -2.371,10.136"
             style="fill:#ffffff;fill-opacity:1;fill-rule:nonzero;stroke:none"
             id="path50" />
        </g>
        <g
           id="g52"
           transform="translate(117.9224,218.2622)">
          <path
             d="m 0,0 c 0,0 9.85,23.233 -10.882,28.328 0,0 13.02,-1.124 17.118,8.36 4.098,9.484 3.196,19.085 3.196,19.085 0,0 7.619,-14.396 18.005,-13.569 14.274,1.136 18.75,7.585 18.75,7.585 0,0 -2.201,-11.9 2.347,-19.69 4.548,-7.791 13.595,-7.234 13.595,-7.234 0,0 -16.238,-2.114 -20.254,-12.471 -4.016,-10.357 -1.604,-20.403 -1.604,-20.403 0,0 -6.604,14.055 -22.743,14.005 C 1.39,3.946 0,0 0,0"
             style="fill:#ffffff;fill-opacity:1;fill-rule:nonzero;stroke:none"
             id="path54" />
        </g>
        <g
           id="g56"
           transform="translate(208.5171,398.8415)">
          <path
             d="m 0,0 c 5.201,-15.31 -4.638,-31.99 -19.948,-37.191 -15.31,-5.202 -31.73,3.873 -36.932,19.183 -5.201,15.309 4.067,30.479 19.377,35.681 C -22.193,22.874 -5.201,15.31 0,0"
             style="fill:#ffffff;fill-opacity:1;fill-rule:nonzero;stroke:none"
             id="path58" />
        </g>
        <g
           id="g60"
           transform="translate(168.1677,367.5003)">
          <path
             d="m 0,0 c 8.906,-8.727 29.816,0.396 34.995,10.559 0,0 -4.223,11.774 -19.275,8.106 C 8.926,17.01 -1.356,10.796 0,0"
             style="fill:#ffe7df;fill-opacity:1;fill-rule:nonzero;stroke:none"
             id="path62" />
        </g>
        <g
           id="g64"
           transform="translate(190.4563,402.9627)">
          <path
             d="m 0,0 c 2.417,-9.613 -3.521,-13.996 -10.556,-16.386 -7.036,-2.39 -12.174,1.525 -14.348,7.925 -2.175,6.4 1.192,13.331 8.228,15.721 C -9.64,9.65 -1.648,6.555 0,0"
             style="fill:#ffe7df;fill-opacity:1;fill-rule:nonzero;stroke:none"
             id="path66" />
        </g>
        <g
           id="g68"
           transform="translate(246.4766,440.7424)">
          <path
             d="M 0,0 1.498,4.562 3.199,0 c 0,0 3.399,-0.578 3.439,-0.895 0.039,-0.31 -3.253,-1.28 -3.253,-1.28 0,0 -1.382,-4.424 -1.887,-3.422 -0.505,1.002 -0.995,3.219 -0.995,3.219 0,0 -4.28,0.89 -4.28,1.326 C -3.777,-0.579 0,0 0,0"
             style="fill:#ffffff;fill-opacity:1;fill-rule:nonzero;stroke:none"
             id="path70" />
        </g>
        <g
           id="g72"
           transform="translate(459.3113,173.7639)">
          <path
             d="M 0,0 2.087,6.354 4.456,0 c 0,0 4.734,-0.805 4.789,-1.247 0.054,-0.431 -4.531,-1.783 -4.531,-1.783 0,0 -1.924,-6.16 -2.627,-4.765 -0.704,1.395 -1.386,4.484 -1.386,4.484 0,0 -5.962,1.238 -5.962,1.846 C -5.261,-0.807 0,0 0,0"
             style="fill:#ffffff;fill-opacity:1;fill-rule:nonzero;stroke:none"
             id="path74" />
        </g>
        <g
           id="g76"
           transform="translate(292.6966,427.4343)">
          <path
             d="M 0,0 4.176,12.717 8.919,0 c 0,0 9.474,-1.611 9.585,-2.495 0.108,-0.864 -9.069,-3.569 -9.069,-3.569 0,0 -3.851,-12.33 -5.259,-9.538 -1.408,2.793 -2.774,8.975 -2.774,8.975 0,0 -11.931,2.478 -11.931,3.695 C -10.529,-1.615 0,0 0,0"
             style="fill:#ffffff;fill-opacity:1;fill-rule:nonzero;stroke:none"
             id="path78" />
        </g>
        <g
           id="g80"
           transform="translate(238.7317,75.4102)">
          <path
             d="M 0,0 2.294,6.987 4.9,0 c 0,0 5.206,-0.885 5.267,-1.371 0.059,-0.474 -4.983,-1.96 -4.983,-1.96 0,0 -2.116,-6.775 -2.89,-5.241 -0.773,1.534 -1.524,4.931 -1.524,4.931 0,0 -6.555,1.362 -6.555,2.03 C -5.785,-0.887 0,0 0,0"
             style="fill:#ffffff;fill-opacity:1;fill-rule:nonzero;stroke:none"
             id="path82" />
        </g>
        <g
           id="g84"
           transform="translate(105.8458,312.0818)">
          <path
             d="M 0,0 2.199,6.696 4.696,0 c 0,0 4.988,-0.848 5.047,-1.314 0.056,-0.454 -4.775,-1.879 -4.775,-1.879 0,0 -2.028,-6.492 -2.769,-5.021 -0.742,1.47 -1.461,4.725 -1.461,4.725 0,0 -6.282,1.305 -6.282,1.945 C -5.544,-0.85 0,0 0,0"
             style="fill:#ffffff;fill-opacity:1;fill-rule:nonzero;stroke:none"
             id="path86" />
        </g>
        <g
           id="g88"
           transform="translate(124.5554,194.4027)">
          <path
             d="M 0,0 2.739,8.341 5.85,0 c 0,0 6.214,-1.057 6.287,-1.637 0.071,-0.566 -5.948,-2.34 -5.948,-2.34 0,0 -2.526,-8.088 -3.45,-6.256 -0.924,1.831 -1.819,5.886 -1.819,5.886 0,0 -7.826,1.626 -7.826,2.424 C -6.906,-1.059 0,0 0,0"
             style="fill:#ffffff;fill-opacity:1;fill-rule:nonzero;stroke:none"
             id="path90" />
        </g>
      </g>
    </g>
    <g
       id="g92">
      <g
         id="g94"
         clip-path="url(#clipPath98)">
        <g
           id="g100"
           transform="translate(70.5213,383.054)">
          <path
             d="m 0,0 c 6.721,8.45 18.2,13.092 29.402,12.614 l -0.075,0.015 c 8.157,0.148 18.649,-2.38 24.219,-8.024 5.571,-5.643 8.665,-13.273 9.016,-20.936 0.515,-11.26 -5.314,-22.576 -14.832,-29.205 1.731,-3.085 4.25,-5.729 7.281,-7.556 -4.99,-0.851 -10.301,0.653 -14.189,3.877 -0.123,-0.048 -0.24,-0.108 -0.364,-0.154 C 26.711,-54.528 9.504,-50.058 0.415,-38.967 -8.675,-27.875 -8.853,-11.131 0,0"
             style="fill:#87d3f6;fill-opacity:1;fill-rule:nonzero;stroke:none"
             id="path102" />
        </g>
        <g
           id="g104"
           transform="translate(125.8609,389.1625)">
          <path
             d="m 0,0 c -2.052,-1.372 -29.589,-32.787 -29.589,-32.787 0,0 -13.217,22.28 -13.466,22.942 0,0 -7.187,-2.729 -7.892,-5 -0.705,-2.272 14.16,-29.604 20.434,-29.247 6.273,0.357 38.312,37.578 38.312,37.578 z"
             style="fill:#8581ff;fill-opacity:1;fill-rule:nonzero;stroke:none"
             id="path106" />
        </g>
      </g>
    </g>
    <g
       id="g108">
      <g
         id="g110"
         clip-path="url(#clipPath114)">
        <g
           id="g116"
           transform="translate(227.7112,115.0168)">
          <path
             d="m 0,0 c 0,0 23.107,-23.666 31.967,-20.1 8.86,3.567 -3.052,32.398 -3.052,32.398 z"
             style="fill:#4a1434;fill-opacity:1;fill-rule:nonzero;stroke:none"
             id="path118" />
        </g>
        <g
           id="g120"
           transform="translate(124.7574,96.1012)">
          <path
             d="m 0,0 c 2.616,-12.52 -5.413,-24.789 -17.932,-27.405 -12.52,-2.616 -24.79,5.413 -27.406,17.932 -2.616,12.52 5.413,24.79 17.933,27.406 C -14.886,20.548 -2.616,12.52 0,0"
             style="fill:#4a1434;fill-opacity:1;fill-rule:nonzero;stroke:none"
             id="path122" />
        </g>
        <g
           id="g124"
           transform="translate(63.4404,233.6434)">
          <path
             d="m 0,0 c 0,0 0.466,-5.991 1.534,-7.34 1.067,-1.348 29.563,4.213 29.922,6.252 0.36,2.04 -1.666,35.609 -1.666,35.609 z"
             style="fill:#8581ff;fill-opacity:1;fill-rule:nonzero;stroke:none"
             id="path126" />
        </g>
        <g
           id="g128"
           transform="translate(193.3298,186.9064)">
          <path
             d="m 0,0 c 2.163,-10.351 -4.475,-20.495 -14.826,-22.658 -10.351,-2.162 -20.495,4.475 -22.658,14.826 -2.163,10.351 4.475,20.495 14.826,22.658 C -12.307,16.989 -2.163,10.351 0,0"
             style="fill:#4a1434;fill-opacity:1;fill-rule:nonzero;stroke:none"
             id="path130" />
        </g>
        <g
           id="g132"
           transform="translate(300.3321,215.8325)">
          <path
             d="m 0,0 c 2.163,-10.351 -4.475,-20.495 -14.826,-22.658 -10.351,-2.163 -20.495,4.475 -22.658,14.826 -2.163,10.351 4.475,20.495 14.826,22.658 C -12.307,16.989 -2.163,10.351 0,0"
             style="fill:#4a1434;fill-opacity:1;fill-rule:nonzero;stroke:none"
             id="path134" />
        </g>
        <g
           id="g136"
           transform="translate(187.3698,167.3563)">
          <path
             d="m 0,0 c 0,0 -21.349,25.083 -34.317,19.811 -7.595,-3.087 -53.171,-67.867 -50.712,-79.123 2.459,-11.255 25.607,-28.437 33.067,-18.905 C -43.787,-67.77 -2.867,-10.229 0,0"
             style="fill:#8581ff;fill-opacity:1;fill-rule:nonzero;stroke:none"
             id="path138" />
        </g>
        <g
           id="g140"
           transform="translate(126.1293,87.7139)">
          <path
             d="m 0,0 c 15.086,22.563 29.734,45.416 44.625,68.107 3.921,5.975 7.857,11.94 11.83,17.881 0.515,0.771 -0.729,1.492 -1.241,0.726 C 40.127,64.151 25.48,41.298 10.588,18.606 6.667,12.632 2.731,6.666 -1.241,0.725 -1.756,-0.046 -0.512,-0.766 0,0"
             style="fill:#4a1434;fill-opacity:1;fill-rule:nonzero;stroke:none"
             id="path142" />
        </g>
        <g
           id="g144"
           transform="translate(64.5234,196.4887)">
          <path
             d="m 0,0 c -0.155,0.741 -4.416,21.135 -1.091,22.782 3.325,1.648 29.116,6.402 31.67,4.712 2.555,-1.69 7.6,-22.326 7.6,-22.326 z"
             style="fill:#4a1434;fill-opacity:1;fill-rule:nonzero;stroke:none"
             id="path146" />
        </g>
        <g
           id="g148"
           transform="translate(170.7676,200.0506)">
          <path
             d="m 0,0 c 0,0 -2.178,-30.931 4.888,-45.184 7.065,-14.252 26.623,-43.228 36.459,-43.501 9.836,-0.273 88.998,27.644 87.633,40.863 -1.365,13.219 -23.76,78.573 -33.485,78.714 C 46.701,31.596 0.263,6.317 0,0"
             style="fill:#8581ff;fill-opacity:1;fill-rule:nonzero;stroke:none"
             id="path150" />
        </g>
        <g
           id="g152"
           transform="translate(100.488,209.2335)">
          <path
             d="m 0,0 c 0,0 -39.196,-4.035 -41.786,-11.814 -2.59,-7.779 6.222,-95.405 15.385,-102.388 9.163,-6.984 41.445,8.478 40.956,20.572 C 14.02,-80.376 4.44,-9.652 0,0"
             style="fill:#8581ff;fill-opacity:1;fill-rule:nonzero;stroke:none"
             id="path154" />
        </g>
        <g
           id="g156"
           transform="translate(107.3076,103.2813)">
          <path
             d="m 0,0 c -3.26,28.127 -8.577,55.987 -12.778,83.98 -1.112,7.41 -2.163,14.83 -3.026,22.274 -0.105,0.908 -1.543,0.918 -1.437,0 C -13.98,78.126 -8.664,50.267 -4.463,22.274 -3.351,14.864 -2.3,7.443 -1.437,0 -1.332,-0.908 0.106,-0.919 0,0"
             style="fill:#4a1434;fill-opacity:1;fill-rule:nonzero;stroke:none"
             id="path158" />
        </g>
        <g
           id="g160"
           transform="translate(170.5861,200.338)">
          <path
             d="m 0,0 c -1.454,-18.361 -0.588,-37.218 8.393,-53.739 2.713,-4.99 6.049,-9.603 9.795,-13.866 0.612,-0.696 1.625,0.324 1.016,1.016 C 12.828,-59.333 7.815,-50.995 4.8,-41.798 2.033,-33.358 0.949,-24.49 0.835,-15.634 0.767,-10.416 1.025,-5.2 1.437,0 1.51,0.922 0.073,0.917 0,0"
             style="fill:#4a1434;fill-opacity:1;fill-rule:nonzero;stroke:none"
             id="path162" />
        </g>
        <g
           id="g164"
           transform="translate(243.376,220.7516)">
          <path
             d="m 0,0 c 0.963,-3.736 -8.897,-9.509 -22.023,-12.893 -13.126,-3.384 -24.548,-3.099 -25.511,0.637 -0.963,3.736 8.897,9.509 22.023,12.893 C -12.385,4.021 -0.963,3.736 0,0"
             style="fill:#4a1434;fill-opacity:1;fill-rule:nonzero;stroke:none"
             id="path166" />
        </g>
        <g
           id="g168"
           transform="translate(259.2158,127.6769)">
          <path
             d="m 0,0 c -12.522,20.612 -23.204,42.332 -31.829,64.857 -2.421,6.322 -4.677,12.706 -6.779,19.141 -0.285,0.875 -1.673,0.501 -1.385,-0.382 7.496,-22.96 17.039,-45.245 28.516,-66.499 C -8.219,11.083 -4.802,5.135 -1.241,-0.725 -0.761,-1.515 0.482,-0.793 0,0"
             style="fill:#4a1434;fill-opacity:1;fill-rule:nonzero;stroke:none"
             id="path170" />
        </g>
        <g
           id="g172"
           transform="translate(171.6443,198.1936)">
          <path
             d="m 0,0 c 7.985,4.916 16.572,8.746 25.566,11.397 0.885,0.261 0.509,1.648 -0.382,1.386 C 16.077,10.098 7.361,6.218 -0.725,1.241 -1.511,0.757 -0.79,-0.487 0,0"
             style="fill:#4a1434;fill-opacity:1;fill-rule:nonzero;stroke:none"
             id="path174" />
        </g>
        <g
           id="g176"
           transform="translate(240.4721,220.3969)">
          <path
             d="M 0,0 C 8.981,2.623 18.119,4.66 27.364,6.098 28.276,6.24 27.889,7.625 26.982,7.484 17.737,6.046 8.599,4.009 -0.382,1.386 -1.268,1.127 -0.891,-0.26 0,0"
             style="fill:#4a1434;fill-opacity:1;fill-rule:nonzero;stroke:none"
             id="path178" />
        </g>
        <g
           id="g180"
           transform="translate(88.7692,250.8774)">
          <path
             d="m 0,0 c 0,0 6.07,7.179 4.286,18.641 -1.109,7.131 -1.372,13.884 -1.133,20.021 0.208,5.36 1.7,13.775 -2.165,15.167 -3.866,1.391 -8.067,-0.139 -10.087,-5.354 -2.02,-5.214 -2.377,-10.382 -2.44,-17.124 0,0 -4.999,7.172 -10.439,13.796 -4.852,5.908 -21.02,28.77 -26.636,24.206 0,0 -4.332,-2.763 -0.878,-7.413 3.453,-4.65 16.066,-21.677 16.925,-24.381 0.859,-2.704 1.595,-2.31 0.092,-3.36 -1.503,-1.05 -6.562,6.283 -8.47,7.725 -1.576,1.191 -13.382,16.333 -21.727,18.155 -2.908,0.635 -5.602,-1.491 -5.697,-4.466 -0.056,-1.742 0.456,-3.963 2.486,-6.305 0,0 -5.704,3.579 -8.083,-0.933 -2.379,-4.512 4.952,-14.286 6.871,-16.101 1.918,-1.816 12.781,-12.314 12.55,-14.787 -0.231,-2.472 -1.149,-1.676 -2.774,-1.01 -1.625,0.665 -15.695,8.128 -23.03,4.559 -5.968,-2.904 -2.351,-8.195 3.759,-10.321 3.393,-1.181 15.654,-5.361 21.318,-11.594 5.664,-6.233 13.78,-12.075 16.529,-14.047 3.742,-2.685 6.1,-4.159 10.417,-4.244 5.921,-0.117 11.596,2.372 15.775,6.568 z"
             style="fill:#8581ff;fill-opacity:1;fill-rule:nonzero;stroke:none"
             id="path182" />
        </g>
        <g
           id="g184"
           transform="translate(29.7696,253.313)">
          <path
             d="m 0,0 c 7.978,11.56 16.123,23.07 27.658,31.405 4.025,2.908 8.37,5.365 12.998,7.176 0.851,0.333 0.481,1.723 -0.382,1.385 C 24.97,33.978 13.462,21.64 4.124,8.513 2.297,5.944 0.55,3.32 -1.241,0.725 -1.767,-0.038 -0.522,-0.757 0,0"
             style="fill:#4a1434;fill-opacity:1;fill-rule:nonzero;stroke:none"
             id="path186" />
        </g>
        <g
           id="g188"
           transform="translate(20.5003,300.4018)">
          <path
             d="m 0,0 c 8.802,-7.892 17.604,-15.784 26.406,-23.676 0.687,-0.616 1.707,0.397 1.017,1.016 C 18.62,-14.768 9.818,-6.876 1.016,1.016 0.329,1.632 -0.69,0.619 0,0"
             style="fill:#4a1434;fill-opacity:1;fill-rule:nonzero;stroke:none"
             id="path190" />
        </g>
        <g
           id="g192"
           transform="translate(76.4359,286.3649)">
          <path
             d="m 0,0 c 0.197,-3.481 0.394,-6.962 0.591,-10.443 0.175,0.231 0.351,0.462 0.527,0.693 -6.177,-2.368 -10.032,-8.512 -10.523,-14.988 -0.51,-6.724 3.253,-13.226 7.26,-18.334 2.265,-2.887 4.924,-5.64 8.145,-7.457 0.806,-0.455 1.532,0.786 0.725,1.241 -3.36,1.896 -6.102,4.868 -8.389,7.934 -2.382,3.193 -4.484,6.772 -5.637,10.605 -2.255,7.495 1.22,16.707 8.801,19.613 0.285,0.109 0.547,0.359 0.528,0.693 C 1.831,-6.962 1.634,-3.481 1.437,0 1.385,0.919 -0.052,0.926 0,0"
             style="fill:#4a1434;fill-opacity:1;fill-rule:nonzero;stroke:none"
             id="path194" />
        </g>
        <g
           id="g196"
           transform="translate(31.2691,268.3893)">
          <path
             d="m 0,0 c 1.6,-1.326 3.2,-2.652 4.8,-3.977 0.299,-0.248 0.724,-0.293 1.016,0 0.255,0.254 0.301,0.767 0,1.016 -1.6,1.326 -3.2,2.651 -4.8,3.977 C 0.718,1.264 0.292,1.309 0,1.016 -0.255,0.761 -0.3,0.249 0,0"
             style="fill:#4a1434;fill-opacity:1;fill-rule:nonzero;stroke:none"
             id="path198" />
        </g>
        <g
           id="g200"
           transform="translate(77.5202,275.2687)">
          <path
             d="m 0,0 c 4.741,0.925 9.63,0.926 14.371,0.002 0.903,-0.176 1.29,1.208 0.382,1.385 C 9.745,2.363 4.626,2.363 -0.382,1.386 -1.289,1.209 -0.905,-0.177 0,0"
             style="fill:#4a1434;fill-opacity:1;fill-rule:nonzero;stroke:none"
             id="path202" />
        </g>
        <g
           id="g204"
           transform="translate(63.3442,231.1685)">
          <path
             d="M 0,0 C 10.561,1.942 21.125,3.862 31.686,5.803 32.594,5.97 32.21,7.356 31.304,7.189 20.743,5.247 10.179,3.327 -0.382,1.386 -1.29,1.219 -0.906,-0.167 0,0"
             style="fill:#4a1434;fill-opacity:1;fill-rule:nonzero;stroke:none"
             id="path206" />
        </g>
        <g
           id="g208"
           transform="translate(446.4211,360.5366)">
          <path
             d="m 0,0 c -0.362,33.937 -20.021,39.608 -40.359,40.992 -8.58,0.584 -36.009,0.406 -54.049,0.212 -18.04,0.194 -45.469,0.372 -54.049,-0.212 -20.338,-1.384 -43.793,-8.435 -44.155,-42.372 0,0 0.811,-243.898 4.22,-258.768 3.409,-14.869 12.175,-22.073 35.552,-22.554 h 116.864 c 23.377,0.481 32.143,7.685 35.552,22.554 C 2.985,-245.278 0,0 0,0"
             style="fill:#4a1434;fill-opacity:1;fill-rule:nonzero;stroke:none"
             id="path210" />
        </g>
        <g
           id="g212"
           transform="translate(437.8209,361.0049)">
          <path
             d="m 0,0 c -0.272,24.838 -11.58,30.29 -32.351,31.663 -2.532,0.168 -8.674,0.367 -23.556,0.367 -8.345,0 -18.374,-0.061 -29.807,-0.181 h -0.187 c -11.434,0.12 -21.462,0.181 -29.807,0.181 -14.882,0 -21.025,-0.199 -23.556,-0.367 -25.102,-1.659 -35.911,-11.528 -36.146,-32.888 0.322,-94.269 1.657,-238.482 4.006,-249.385 2.009,-8.5 5.297,-15.038 27.343,-15.478 h 116.507 c 22.045,0.44 25.333,6.977 27.334,15.447 C 2.09,-239.546 1.141,-91.023 0,0"
             style="fill:#ffffff;fill-opacity:1;fill-rule:nonzero;stroke:none"
             id="path214" />
        </g>
        <g
           id="g216"
           transform="translate(327.2953,386.1903)">
          <path
             d="m 0,0 c -2.056,-0.009 -3.994,-1.168 -4.748,-3.054 -0.275,-0.688 -0.392,-1.454 -0.189,-2.257 0.734,-2.892 1.955,-3.132 7.331,-2.892 4.67,0.21 41.675,-0.298 50.901,-0.356 2.103,-0.014 2.567,1.451 3.354,3.374 0.303,0.738 0.438,1.588 0.235,2.525 -0.733,3.373 -5.991,2.409 -7.946,2.65 C 47.228,0.201 10.004,0.043 0,0"
             style="fill:#4a1434;fill-opacity:1;fill-rule:nonzero;stroke:none"
             id="path218" />
        </g>
        <g
           id="g220"
           transform="translate(378.6066,222.7294)">
          <path
             d="m 0,0 c 0,0 -103.94,1.54 -104.486,0 -2.104,-5.94 -2.418,-43.811 -1.411,-45.401 1.007,-1.59 104.353,-1.779 105.36,2.037 C 0.471,-39.548 0,-9.12 0,-9.12 0,-9.12 5.036,0.215 4.868,0 4.7,-0.215 0,0 0,0"
             style="fill:#87d3f6;fill-opacity:1;fill-rule:nonzero;stroke:none"
             id="path222" />
        </g>
        <g
           id="g224"
           transform="translate(367.249,206.4409)">
          <path
             d="m 0,0 h -79.727 c 0,0 -0.508,2.712 0,3.298 C -79.219,3.883 -0.393,3.609 0,2.886 0.393,2.163 0,0 0,0"
             style="fill:#8581ff;fill-opacity:1;fill-rule:nonzero;stroke:none"
             id="path226" />
        </g>
        <g
           id="g228"
           transform="translate(367.7073,196.9487)">
          <path
             d="m 0,0 h -79.727 c 0,0 -0.508,2.712 0,3.298 C -79.219,3.883 -0.393,3.609 0,2.886 0.393,2.163 0,0 0,0"
             style="fill:#8581ff;fill-opacity:1;fill-rule:nonzero;stroke:none"
             id="path230" />
        </g>
        <g
           id="g232"
           transform="translate(367.249,188.7338)">
          <path
             d="m 0,0 h -79.727 c 0,0 -0.508,2.712 0,3.298 C -79.219,3.883 -0.393,3.609 0,2.886 0.393,2.163 0,0 0,0"
             style="fill:#8581ff;fill-opacity:1;fill-rule:nonzero;stroke:none"
             id="path234" />
        </g>
        <g
           id="g236"
           transform="translate(325.3729,346.0611)">
          <path
             d="m 0,0 c 0,0 103.94,1.54 104.486,0 2.104,-5.94 1.086,-41.732 0.079,-43.322 C 103.558,-44.912 1.544,-47.18 0.537,-43.364 -0.47,-39.548 0,-9.12 0,-9.12 0,-9.12 -5.036,0.216 -4.868,0 -4.7,-0.215 0,0 0,0"
             style="fill:#87d3f6;fill-opacity:1;fill-rule:nonzero;stroke:none"
             id="path238" />
        </g>
        <g
           id="g240"
           transform="translate(336.7306,329.7726)">
          <path
             d="m 0,0 h 79.727 c 0,0 0.508,2.712 0,3.298 C 79.219,3.883 0.393,3.609 0,2.886 -0.393,2.163 0,0 0,0"
             style="fill:#8581ff;fill-opacity:1;fill-rule:nonzero;stroke:none"
             id="path242" />
        </g>
        <g
           id="g244"
           transform="translate(336.2723,320.2804)">
          <path
             d="m 0,0 h 79.727 c 0,0 0.508,2.712 0,3.298 C 79.219,3.884 0.393,3.609 0,2.886 -0.393,2.163 0,0 0,0"
             style="fill:#8581ff;fill-opacity:1;fill-rule:nonzero;stroke:none"
             id="path246" />
        </g>
        <g
           id="g248"
           transform="translate(336.7306,312.0655)">
          <path
             d="m 0,0 h 42.815 c 0,0 0.508,2.712 0,3.298 C 42.307,3.884 0.393,3.609 0,2.886 -0.393,2.163 0,0 0,0"
             style="fill:#8581ff;fill-opacity:1;fill-rule:nonzero;stroke:none"
             id="path250" />
        </g>
        <g
           id="g252"
           transform="translate(323.2193,288.54)">
          <path
             d="m 0,0 c 0,0 103.94,1.54 104.486,0 2.104,-5.94 1.086,-33.891 0.079,-35.481 C 103.558,-37.071 1.544,-39.339 0.536,-35.523 -0.471,-31.707 0,-9.12 0,-9.12 0,-9.12 -5.036,0.215 -4.868,0 -4.7,-0.216 0,0 0,0"
             style="fill:#87d3f6;fill-opacity:1;fill-rule:nonzero;stroke:none"
             id="path254" />
        </g>
        <g
           id="g256"
           transform="translate(334.5769,272.2515)">
          <path
             d="m 0,0 h 79.727 c 0,0 0.508,2.712 0,3.298 C 79.219,3.884 0.393,3.609 0,2.886 -0.393,2.163 0,0 0,0"
             style="fill:#8581ff;fill-opacity:1;fill-rule:nonzero;stroke:none"
             id="path258" />
        </g>
        <g
           id="g260"
           transform="translate(334.1186,262.7593)">
          <path
             d="m 0,0 h 79.727 c 0,0 0.508,2.712 0,3.298 C 79.219,3.883 0.393,3.609 0,2.886 -0.393,2.163 0,0 0,0"
             style="fill:#8581ff;fill-opacity:1;fill-rule:nonzero;stroke:none"
             id="path262" />
        </g>
        <g
           id="g264"
           transform="translate(320.501,334.7124)">
          <path
             d="m 0,0 c -0.002,-10.713 -9.732,-19.078 -20.445,-19.076 -10.713,0.002 -19.078,9.196 -19.076,19.909 0.002,10.713 9.051,18.253 19.764,18.25 C -9.044,19.082 0.002,10.713 0,0"
             style="fill:#8581ff;fill-opacity:1;fill-rule:nonzero;stroke:none"
             id="path266" />
        </g>
        <g
           id="g268"
           transform="translate(288.5064,323.6566)">
          <path
             d="m 0,0 c 3.726,-7.374 18.788,-6.11 24.204,-0.839 0,0 -0.138,8.287 -10.363,9.195 C 9.227,8.767 1.452,7.062 0,0"
             style="fill:#4a1434;fill-opacity:1;fill-rule:nonzero;stroke:none"
             id="path270" />
        </g>
        <g
           id="g272"
           transform="translate(310.0503,341.149)">
          <path
             d="m 0,0 c -0.534,-6.546 -5.193,-8.029 -10.116,-8.028 -4.923,0.001 -7.311,3.553 -7.311,8.031 0.001,4.479 3.591,8.108 8.514,8.107 C -3.99,8.109 0.364,4.464 0,0"
             style="fill:#4a1434;fill-opacity:1;fill-rule:nonzero;stroke:none"
             id="path274" />
        </g>
        <g
           id="g276"
           transform="translate(433.3868,212.7089)">
          <path
             d="m 0,0 c -0.002,-12.328 -11.199,-21.955 -23.527,-21.952 -12.329,0.002 -21.955,10.582 -21.953,22.91 0.003,12.329 10.416,21.005 22.744,21.003 C -10.408,21.959 0.002,12.328 0,0"
             style="fill:#87d3f6;fill-opacity:1;fill-rule:nonzero;stroke:none"
             id="path278" />
        </g>
        <g
           id="g280"
           transform="translate(393.492,228.166)">
          <path
             d="m 0,0 c 0,0 34.17,-0.449 38.277,-4.271 4.107,-3.822 1.422,-26.59 -3.793,-28.423 -5.246,-1.844 -34.05,1.238 -38.847,3.092 C -7.389,-28.433 -6.249,0.298 0,0"
             style="fill:#8581ff;fill-opacity:1;fill-rule:nonzero;stroke:none"
             id="path282" />
        </g>
        <g
           id="g284"
           transform="translate(421.7428,198.5747)">
          <path
             d="m 0,0 c -9.404,0 -25.121,1.867 -30.134,3.075 -0.353,1.795 -0.65,5.988 -0.155,11.563 0.623,7.016 1.951,10.277 2.609,11.275 C -8.972,25.635 4.94,24.011 7.513,22.613 8.088,21.593 8.775,17.467 8.031,11.201 7.247,4.599 5.585,1.084 4.844,0.313 4.418,0.216 3.122,0 0,0"
             style="fill:#4a1434;fill-opacity:1;fill-rule:nonzero;stroke:none"
             id="path286" />
        </g>
        <g
           id="g288"
           transform="translate(399.2547,215.348)">
          <path
             d="M 0,0 C 0.024,-1.187 0.91,-2.132 1.98,-2.111 3.05,-2.089 3.898,-1.11 3.874,0.077 3.851,1.264 2.964,2.209 1.894,2.188 0.824,2.166 -0.024,1.187 0,0"
             style="fill:#87d3f6;fill-opacity:1;fill-rule:nonzero;stroke:none"
             id="path290" />
        </g>
        <g
           id="g292"
           transform="translate(419.5452,213.9748)">
          <path
             d="m 0,0 c 0.024,-1.187 0.91,-2.132 1.98,-2.11 1.07,0.021 1.918,1 1.894,2.187 C 3.851,1.264 2.964,2.209 1.894,2.188 0.824,2.166 -0.024,1.187 0,0"
             style="fill:#87d3f6;fill-opacity:1;fill-rule:nonzero;stroke:none"
             id="path294" />
        </g>
        <g
           id="g296"
           transform="translate(405.5521,213.1438)">
          <path
             d="m 0,0 c 3.441,-2.22 7.994,-2.345 11.57,-0.366 0.809,0.447 0.085,1.689 -0.726,1.24 C 7.7,-0.866 3.738,-0.703 0.725,1.241 -0.054,1.744 -0.775,0.5 0,0"
             style="fill:#87d3f6;fill-opacity:1;fill-rule:nonzero;stroke:none"
             id="path298" />
        </g>
        <g
           id="g300"
           transform="translate(429.2994,220.2005)">
          <path
             d="m 0,0 c 1.451,0.671 2.767,1.656 3.824,2.855 0.248,0.282 0.298,0.742 0,1.016 -0.272,0.25 -0.751,0.301 -1.016,0 C 2.556,3.586 2.292,3.313 2.013,3.055 1.877,2.929 1.738,2.807 1.596,2.688 1.525,2.629 1.453,2.571 1.381,2.513 1.228,2.389 1.448,2.561 1.357,2.493 1.316,2.462 1.275,2.431 1.234,2.4 0.622,1.947 -0.035,1.56 -0.725,1.241 -1.068,1.083 -1.18,0.562 -0.983,0.258 -0.756,-0.095 -0.366,-0.169 0,0"
             style="fill:#4a1434;fill-opacity:1;fill-rule:nonzero;stroke:none"
             id="path302" />
        </g>
        <g
           id="g304"
           transform="translate(426.1839,198.4289)">
          <path
             d="m 0,0 c 0.05,-0.061 0.1,-0.122 0.149,-0.183 0.025,-0.031 0.049,-0.062 0.073,-0.093 0.046,-0.057 0.035,-0.045 -0.004,0.005 0.095,-0.126 0.19,-0.252 0.281,-0.38 0.188,-0.265 0.367,-0.537 0.537,-0.814 0.333,-0.547 0.627,-1.116 0.883,-1.703 0.151,-0.346 0.684,-0.451 0.983,-0.258 0.359,0.231 0.42,0.613 0.258,0.983 C 2.614,-1.19 1.884,-0.038 1.016,1.016 0.776,1.308 0.245,1.283 0,1.016 -0.284,0.707 -0.256,0.311 0,0"
             style="fill:#4a1434;fill-opacity:1;fill-rule:nonzero;stroke:none"
             id="path306" />
        </g>
        <g
           id="g308"
           transform="translate(389.5968,198.341)">
          <path
             d="M 0,0 C 0.107,0.172 0.22,0.34 0.338,0.505 0.366,0.544 0.394,0.583 0.423,0.622 0.434,0.637 0.532,0.766 0.472,0.687 0.411,0.609 0.511,0.737 0.522,0.751 0.559,0.796 0.595,0.841 0.632,0.886 0.885,1.19 1.157,1.478 1.446,1.747 1.588,1.879 1.733,2.006 1.882,2.129 1.919,2.16 1.956,2.19 1.994,2.22 2.012,2.234 2.168,2.35 2.031,2.25 2.109,2.307 2.186,2.365 2.264,2.421 2.594,2.656 2.94,2.868 3.298,3.059 3.63,3.236 3.76,3.725 3.555,4.042 3.338,4.379 2.928,4.489 2.572,4.3 1.014,3.469 -0.305,2.22 -1.241,0.725 -1.441,0.406 -1.319,-0.08 -0.983,-0.258 -0.63,-0.444 -0.213,-0.341 0,0"
             style="fill:#4a1434;fill-opacity:1;fill-rule:nonzero;stroke:none"
             id="path310" />
        </g>
        <g
           id="g312"
           transform="translate(391.7876,227.5731)">
          <path
             d="m 0,0 c 0.209,-1.62 0.757,-3.169 1.681,-4.522 0.212,-0.31 0.642,-0.479 0.984,-0.258 0.308,0.199 0.484,0.651 0.257,0.983 -0.204,0.3 -0.393,0.609 -0.562,0.929 -0.091,0.171 -0.176,0.345 -0.255,0.521 -0.01,0.021 -0.091,0.206 -0.043,0.094 -0.038,0.089 -0.073,0.179 -0.108,0.269 -0.129,0.339 -0.238,0.685 -0.327,1.036 -0.042,0.164 -0.079,0.329 -0.112,0.495 -0.019,0.095 -0.036,0.19 -0.052,0.285 C 1.459,-0.143 1.42,0.132 1.437,0 1.389,0.371 1.141,0.737 0.719,0.718 0.37,0.703 -0.052,0.399 0,0"
             style="fill:#4a1434;fill-opacity:1;fill-rule:nonzero;stroke:none"
             id="path314" />
        </g>
        <g
           id="g316">
          <g
             id="g318" />
          <g
             id="g330">
            <g
               clip-path="url(#clipPath322)"
               opacity="0.199997"
               id="g328">
              <g
                 transform="translate(284.8715,242.9162)"
                 id="g326">
                <path
                   d="M 0,0 C 0.056,0.606 0.106,1.219 0.154,1.839 -0.756,1.335 -0.831,-0.139 0,0 m -8.374,-1.51 c -0.393,0.2 -0.741,0.377 -1.06,0.537 -2.986,-1.558 2.272,-4.288 1.06,-0.537 m 5.001,11.454 c 0.524,0.029 0.902,-0.109 1.378,-0.35 0.169,0.451 0.308,0.824 0.454,1.217 -0.707,2.488 -3.093,1.229 -1.832,-0.867 M -3.481,5.446 C -3.307,5.138 -3.157,4.874 -2.953,4.514 -4.82,3.286 -2.993,2.519 -1.695,3.412 -1.549,3.938 -1.419,4.406 -1.256,4.997 -2.08,4.972 -2.513,6.065 -3.481,5.446 m -9.93,-9.85 c -0.608,-0.841 -0.399,-1.633 -0.069,-2.508 1.04,0.096 1.619,0.641 2.117,1.313 -0.224,1.517 -0.806,1.178 -2.048,1.195 m -1.412,14.548 v 0.22 l -0.222,-0.224 c 0.074,0.002 0.147,0.007 0.222,0.004 m -10.8,-14.693 0.415,-2.121 c 0.377,0.017 0.726,0.143 0.99,0.455 -0.09,0.844 -0.68,1.488 -1.405,1.666 m 5.119,-1.803 c 0.613,-0.206 1.167,-0.392 1.719,-0.579 1.145,0.788 0.833,2.406 -0.394,2.598 -1.535,-0.206 -1.242,-0.783 -1.325,-2.019 M -9.889,5.502 c -0.281,-0.33 -0.541,-0.636 -0.885,-1.039 1.931,-4.448 4.368,1.044 0.885,1.039 m 0.554,-22.387 c 2.475,0.568 1.804,2.335 -0.355,3.031 -0.761,-0.865 -0.66,-2.522 0.355,-3.031 m 0.674,26.731 c 1.444,0.509 0.391,2.732 -0.958,2.013 -0.259,-0.15 -0.605,-0.155 -0.89,-0.22 -1.178,-1.259 0.855,-2.506 1.848,-1.793 m 9.309,2.982 c 0.018,0.916 0.031,1.806 0.04,2.668 -0.054,0.015 -0.112,0.03 -0.164,0.045 -0.457,-0.421 -0.857,-0.79 -1.241,-1.143 0.097,-1.163 0.737,-1.6 1.365,-1.57 M -16.017,-7.333 c -0.487,-0.595 -0.941,-1.152 -1.437,-1.757 0.328,-0.657 1.331,-2.001 1.578,-0.538 0.292,-0.128 0.496,-0.215 0.777,-0.338 1.129,0.934 0.219,2.204 -0.918,2.633 m -1.957,14.514 -0.864,-0.873 c 0.415,0.247 0.763,0.514 0.864,0.873 m 5.572,-18.089 c -2.646,-0.144 -2.146,-3.14 0.668,-2.393 0.482,0.684 0.309,2.197 -0.668,2.393 m -5.665,-1.753 c 0.657,0.501 0.09,1.164 -0.306,1.573 -0.905,0.569 -1.651,-0.763 -2.578,-1.183 0.788,-1.156 2.358,-2.099 2.884,-0.39 m 14.389,4.617 c -0.144,-1.339 -0.144,-1.339 0.397,-2.217 h 1.25 c 0.164,0.202 0.314,0.385 0.456,0.56 0.095,0.328 0.186,0.668 0.273,1.025 -0.461,0.906 -1.628,1.457 -2.376,0.632 M -15.236,5.577 c -1.406,0.359 -1.833,-0.504 -2.173,-1.52 0.444,-0.586 1.165,-0.66 1.539,-1.375 1.236,0.679 1.703,1.878 0.634,2.895 m -0.318,-19.866 c -1.016,-0.068 -1.597,-0.575 -1.643,-1.675 1.241,-3.029 3.886,0.328 1.643,1.675 m 7.501,31.491 -0.979,-0.988 c 0.21,0.02 0.443,0.052 0.74,0.104 0.063,0.337 0.161,0.623 0.239,0.884 m -8.581,-18.406 c -1.483,-1.117 -0.31,-2.445 1.158,-2.825 1.289,1.545 1.181,3.033 -1.158,2.825 m 9.599,9.475 V 6.688 c 3.47,-1.996 3.366,4.238 0,1.583 m 5.676,9.88 c -0.34,0.279 -0.689,0.566 -1.131,0.927 -4.414,-1.749 1.412,-4.915 1.131,-0.927 m -3.284,-30.628 c -0.288,0.567 -0.596,1.171 -0.992,1.95 -3.893,-1.063 -0.636,-4.593 0.992,-1.95 m 2.124,8.78 c 1.241,-0.095 1.551,1.785 0.754,2.485 -2.175,0.935 -3.361,-2.015 -0.754,-2.485 M -23.825,-8.04 c -0.648,-1.72 1.806,-3.366 2.661,-1.435 -0.115,0.454 -0.235,0.932 -0.37,1.473 -0.828,0.596 -1.568,0.57 -2.291,-0.038 M 0.702,19.374 C 0.7,20.348 0.692,21.233 0.683,22.028 0.059,21.863 -0.53,21.57 -0.997,21.151 -0.75,19.996 -0.074,19.266 0.702,19.374 m -11.653,-5.446 c -0.016,0.098 -0.044,0.186 -0.074,0.272 l -1.588,-1.604 c 0.008,-0.018 0.018,-0.029 0.027,-0.047 0.586,0.495 1.097,0.926 1.635,1.379 m 9.873,10.295 c -0.006,0.003 -0.008,0.008 -0.014,0.011 l -1.536,-1.552 c 0.891,-0.2 1.125,0.133 1.55,1.541 M -23.866,-2.583 c 0.256,-1.782 2.799,-1.083 2.981,0.536 -1.277,1.391 -2.925,1.689 -2.981,-0.536 m 12.673,9.863 c -0.015,1.75 -2.011,2.555 -2.744,0.814 0.284,-0.618 0.732,-1.193 0.294,-1.886 1.182,-0.614 1.752,0.256 2.45,1.072 m -11.365,-24.181 c 0.432,0.149 0.862,0.258 1.291,0.319 0.806,1.577 -0.701,2.856 -2.236,2.269 -0.069,-0.082 -0.114,-0.168 -0.162,-0.253 l 0.357,-1.824 c 0.208,-0.208 0.462,-0.386 0.75,-0.511 m 9.871,-0.414 c -1.016,-0.52 -1.126,-0.583 -1.333,-1.482 0.833,0.249 1.682,0.522 2.527,0.823 -0.213,0.304 -0.592,0.55 -1.194,0.659 m 5.162,31.43 c 0.289,-0.42 0.418,-0.84 0.813,-1.159 4.253,-0.442 0.796,5.463 -0.813,1.159 M -18.963,2.592 c -3.027,-1.054 -1.308,-3.82 1.03,-2.537 0.234,1.056 0.152,1.987 -1.03,2.537 M 0.428,6.247 C 0.475,7.216 0.515,8.181 0.548,9.139 -0.305,8.864 -0.29,8.044 -0.678,7.616 -0.631,6.704 -0.139,6.294 0.428,6.247 m -12.855,-6.351 c 0.776,0.319 1.286,0.573 1.495,1.47 -3.588,3.282 -4.275,-2.499 -1.495,-1.47 m 6.997,2.189 c -1.737,0.617 -2.383,-2.17 -0.991,-2.733 2.161,-0.145 2.723,1.328 0.991,2.733 m -3.854,-12.667 c 2.054,0.538 2.033,2.766 -0.118,3.229 -1.384,-1.123 -1.661,-2.372 0.118,-3.229 m 4.634,4.098 v 1.426 c -1.266,1.404 -2.238,1.195 -2.984,-0.528 0.302,-0.53 0.543,-0.951 0.774,-1.356 1.157,-0.081 1.157,-0.081 2.21,0.458 M -20.98,4.145 -22.372,2.739 c 0.943,0.187 1.35,0.783 1.392,1.406 m -4.768,-4.817 c 0.012,-0.004 0.02,-0.01 0.033,-0.014 0.077,0.094 0.155,0.188 0.231,0.281 z m 3.283,-20.031 0.004,-0.021 c 0,0 0.115,0.017 0.319,0.051 -0.056,0.011 -0.098,0.042 -0.158,0.047 -0.062,-0.023 -0.106,-0.052 -0.165,-0.077 m 4.271,0.814 c -0.541,-0.123 -1.046,-0.232 -1.507,-0.327 -0.519,0.216 -0.938,0.542 -1.175,1.112 0.244,0.573 0.47,1.102 0.752,1.763 1.947,0.387 2.983,-1.169 1.93,-2.548"
                   style="fill:#4a1434;fill-opacity:1;fill-rule:nonzero;stroke:none"
                   id="path324" />
              </g>
            </g>
          </g>
        </g>
        <g
           id="g332"
           transform="translate(137.0953,330.2646)">
          <path
             d="M 0,0 C 0,0 115.857,24.584 132.661,14.802 149.464,5.019 157.779,-74.002 141.55,-84.18 125.222,-94.421 25.497,-106.006 7.863,-103.405 -3.258,-101.764 -21.352,-3.765 0,0"
             style="fill:#8581ff;fill-opacity:1;fill-rule:nonzero;stroke:none"
             id="path334" />
        </g>
        <g
           id="g336"
           transform="translate(255.2026,251.811)">
          <path
             d="m 0,0 c -31.79,-7.184 -86.349,-12.877 -104.216,-12.623 -2.565,5.799 -6.773,19.744 -9.359,38.971 -3.252,24.193 -1.254,36.231 0.206,40.107 C -49.912,79.805 -1.641,84.943 8.124,82.183 10.847,79.173 16.32,65.75 18.593,43.999 20.987,21.083 18.052,7.931 16.135,4.759 14.77,4.105 10.555,2.385 0,0"
             style="fill:#4a1434;fill-opacity:1;fill-rule:nonzero;stroke:none"
             id="path338" />
        </g>
        <g
           id="g340"
           transform="translate(166.3681,291.3353)">
          <path
             d="m 0,0 c 0.986,-3.995 4.704,-6.512 8.305,-5.623 3.6,0.89 5.719,4.849 4.733,8.843 C 12.052,7.214 8.333,9.731 4.732,8.842 1.132,7.953 -0.987,3.994 0,0"
             style="fill:#87d3f6;fill-opacity:1;fill-rule:nonzero;stroke:none"
             id="path342" />
        </g>
        <g
           id="g344"
           transform="translate(236.0094,302.1928)">
          <path
             d="m 0,0 c 0.987,-3.994 4.705,-6.511 8.306,-5.622 3.6,0.889 5.719,4.848 4.733,8.842 C 12.052,7.215 8.334,9.732 4.733,8.842 1.133,7.953 -0.986,3.994 0,0"
             style="fill:#87d3f6;fill-opacity:1;fill-rule:nonzero;stroke:none"
             id="path346" />
        </g>
        <g
           id="g348"
           transform="translate(189.9014,290.3758)">
          <path
             d="M 0,0 C 12.702,-4.682 27.564,-1.787 37.639,7.23 38.33,7.848 37.311,8.862 36.623,8.247 26.91,-0.447 12.597,-3.116 0.382,1.386 -0.487,1.706 -0.862,0.318 0,0"
             style="fill:#87d3f6;fill-opacity:1;fill-rule:nonzero;stroke:none"
             id="path350" />
        </g>
        <g
           id="g352"
           transform="translate(262.8907,331.8902)">
          <path
             d="m 0,0 c 2.217,1.708 4.208,3.706 5.773,6.035 1.344,1.999 2.404,4.332 2.431,6.778 0.01,0.925 -1.427,0.926 -1.437,0 C 6.743,10.617 5.734,8.55 4.532,6.76 3.116,4.65 1.285,2.789 -0.725,1.241 -1.448,0.685 -0.733,-0.564 0,0"
             style="fill:#4a1434;fill-opacity:1;fill-rule:nonzero;stroke:none"
             id="path354" />
        </g>
        <g
           id="g356"
           transform="translate(271.1486,256.3083)">
          <path
             d="m 0,0 c 1.582,-1.223 3.135,-2.486 4.567,-3.884 1.416,-1.383 2.695,-2.894 3.866,-4.49 0.229,-0.312 0.623,-0.468 0.983,-0.257 0.308,0.18 0.488,0.668 0.257,0.983 -1.217,1.66 -2.53,3.246 -3.999,4.691 C 4.217,-1.524 2.631,-0.233 1.016,1.016 0.71,1.253 0.299,1.315 0,1.016 -0.247,0.769 -0.309,0.239 0,0"
             style="fill:#4a1434;fill-opacity:1;fill-rule:nonzero;stroke:none"
             id="path358" />
        </g>
        <g
           id="g360"
           transform="translate(145.0293,227.026)">
          <path
             d="M 0,0 C 1.849,5.268 5.079,9.963 9.301,13.61 10.002,14.216 8.982,15.229 8.285,14.627 3.873,10.816 0.543,5.879 -1.386,0.382 -1.693,-0.492 -0.305,-0.868 0,0"
             style="fill:#4a1434;fill-opacity:1;fill-rule:nonzero;stroke:none"
             id="path362" />
        </g>
        <g
           id="g364"
           transform="translate(457.4718,290.9353)">
          <path
             d="m 0,0 c 0,0 3.387,8.024 1.039,12.757 -3.043,6.133 -18.02,16.742 -24.639,14.757 -6.618,-1.986 -5.313,-10.459 -2.024,-12.25 3.288,-1.791 12.129,-4.585 14.805,-7.162 2.425,-2.335 1.26,-4.278 1.26,-4.278 0,0 -17.463,7.115 -22.724,1.895 -5.26,-5.222 0.128,-9.425 0.128,-9.425 0,0 -8.472,-7.163 2.152,-13.961 0,0 -0.773,-5.716 3.386,-9.202 4.159,-3.487 16.683,-7.716 16.683,-7.716 l 10e-4,-11.165 c 5.478,-1.241 17.424,15.439 13.203,20.961 0,0 2.59,7.43 -0.256,11.943 l -1.636,2.009 c 0,0 3.242,7.386 -1.378,10.837"
             style="fill:#8581ff;fill-opacity:1;fill-rule:nonzero;stroke:none"
             id="path366" />
        </g>
        <g
           id="g368"
           transform="translate(447.0978,294.7381)">
          <path
             d="m 0,0 c 4.035,-0.846 7.842,-2.47 11.247,-4.796 0.765,-0.523 1.485,0.722 0.725,1.241 C 8.477,-1.167 4.525,0.517 0.382,1.386 -0.52,1.575 -0.906,0.19 0,0"
             style="fill:#4a1434;fill-opacity:1;fill-rule:nonzero;stroke:none"
             id="path370" />
        </g>
        <g
           id="g372"
           transform="translate(425.3785,286.1834)">
          <path
             d="m 0,0 c 1.99,2.462 5.167,2.734 8.103,2.274 2.941,-0.462 5.868,-1.354 8.7,-2.257 5.655,-1.804 11.098,-4.188 16.282,-7.075 0.808,-0.451 1.534,0.79 0.725,1.241 C 28.066,-2.618 21.992,-0.024 15.692,1.865 10.611,3.387 3.019,6.009 -1.016,1.016 -1.592,0.303 -0.582,-0.72 0,0"
             style="fill:#4a1434;fill-opacity:1;fill-rule:nonzero;stroke:none"
             id="path374" />
        </g>
        <g
           id="g376"
           transform="translate(428.0404,272.5847)">
          <path
             d="m 0,0 c 3.719,5.837 11.57,3.123 16.636,1.086 3.001,-1.208 6.001,-2.419 9.002,-3.629 2.591,-1.044 5.783,-1.966 7.124,-4.652 0.413,-0.827 1.653,-0.1 1.241,0.726 -1.318,2.641 -4.11,3.75 -6.697,4.793 -3.758,1.517 -7.51,3.052 -11.279,4.545 C 10.461,5.073 2.626,6.795 -1.241,0.725 -1.739,-0.057 -0.496,-0.779 0,0"
             style="fill:#4a1434;fill-opacity:1;fill-rule:nonzero;stroke:none"
             id="path378" />
        </g>
        <g
           id="g380"
           transform="translate(447.5031,255.3739)">
          <path
             d="m 0,0 c 5.898,1.91 9.989,7.299 10.246,13.495 0.038,0.925 -1.399,0.923 -1.437,0 C 8.579,7.957 4.891,3.093 -0.382,1.386 -1.258,1.102 -0.883,-0.286 0,0"
             style="fill:#4a1434;fill-opacity:1;fill-rule:nonzero;stroke:none"
             id="path382" />
        </g>
        <g
           id="g384"
           transform="translate(132.5953,327.4151)">
          <path
             d="m 0,0 c 2.593,-4.051 6.268,-7.359 10.588,-9.478 0.827,-0.405 1.557,0.834 0.725,1.241 C 7.209,-6.224 3.707,-3.127 1.241,0.725 0.744,1.502 -0.501,0.782 0,0"
             style="fill:#4a1434;fill-opacity:1;fill-rule:nonzero;stroke:none"
             id="path386" />
        </g>
        <g
           id="g388"
           transform="translate(372.5643,166.1054)">
          <path
             d="m 0,0 c 0,0 -60.02,1.54 -60.566,0 -2.104,-5.94 -0.639,-29.287 0.368,-30.877 1.007,-1.591 58.354,-4.412 59.361,-0.596 C 0.17,-27.656 0,-9.12 0,-9.12 0,-9.12 5.036,0.216 4.868,0 4.7,-0.215 0,0 0,0"
             style="fill:#87d3f6;fill-opacity:1;fill-rule:nonzero;stroke:none"
             id="path390" />
        </g>
        <g
           id="g392"
           transform="translate(332.5238,148.3763)">
          <path
             d="m 0,0 c 0,-2.883 -2.175,-3.911 -4.858,-3.911 -2.683,0 -4.857,1.028 -4.857,3.911 0,2.883 2.174,5.221 4.857,5.221 C -2.175,5.221 0,2.883 0,0"
             style="fill:#8581ff;fill-opacity:1;fill-rule:nonzero;stroke:none"
             id="path394" />
        </g>
        <g
           id="g396"
           transform="translate(346.165,148.3763)">
          <path
             d="m 0,0 c 0,-2.883 -2.175,-3.911 -4.858,-3.911 -2.683,0 -4.857,1.028 -4.857,3.911 0,2.883 2.174,5.221 4.857,5.221 C -2.175,5.221 0,2.883 0,0"
             style="fill:#8581ff;fill-opacity:1;fill-rule:nonzero;stroke:none"
             id="path398" />
        </g>
        <g
           id="g400"
           transform="translate(359.8062,148.3763)">
          <path
             d="m 0,0 c 0,-2.883 -2.175,-3.911 -4.858,-3.911 -2.682,0 -4.857,1.028 -4.857,3.911 0,2.883 2.175,5.221 4.857,5.221 C -2.175,5.221 0,2.883 0,0"
             style="fill:#8581ff;fill-opacity:1;fill-rule:nonzero;stroke:none"
             id="path402" />
        </g>
        <g
           id="g404"
           transform="translate(419.9576,368.766)">
          <path
             d="m 0,0 c -1.808,0 -3.274,1.466 -3.274,3.274 0,1.808 1.466,3.274 3.274,3.274 1.808,0 3.274,-1.466 3.274,-3.274 C 3.274,1.466 1.808,0 0,0"
             style="fill:#8581ff;fill-opacity:1;fill-rule:nonzero;stroke:none"
             id="path406" />
        </g>
        <g
           id="g408"
           transform="translate(419.9576,360.0354)">
          <path
             d="m 0,0 c -1.808,0 -3.274,1.466 -3.274,3.274 0,1.808 1.466,3.274 3.274,3.274 1.808,0 3.274,-1.466 3.274,-3.274 C 3.274,1.466 1.808,0 0,0"
             style="fill:#8581ff;fill-opacity:1;fill-rule:nonzero;stroke:none"
             id="path410" />
        </g>
        <g
           id="g412"
           transform="translate(283.3498,371.9003)">
          <path
             d="m 0,0 c -1.999,-1.701 -4.025,-3.41 -5.867,-5.281 -0.33,-0.335 -0.756,-0.712 -0.935,-1.156 -0.191,-0.471 0.04,-0.841 0.316,-1.21 0.915,-1.222 1.992,-2.335 3.027,-3.454 0.87,-0.94 1.747,-1.873 2.633,-2.798 0.641,-0.669 1.656,0.348 1.016,1.016 -1.736,1.813 -3.486,3.631 -5.101,5.555 -0.164,0.196 -0.319,0.381 -0.413,0.512 -0.043,0.059 -0.081,0.122 -0.125,0.179 -0.147,0.192 -0.029,0.06 -0.022,-0.154 -0.003,0.096 -0.011,-0.345 -0.04,-0.257 0.001,-0.003 0.033,0.064 0.039,0.064 0.053,0.002 0.014,0.027 0.08,0.106 0.171,0.202 0.355,0.392 0.541,0.581 1.071,1.088 2.223,2.1 3.367,3.111 0.827,0.73 1.66,1.455 2.5,2.17 C 1.722,-0.416 0.701,0.596 0,0"
             style="fill:#4a1434;fill-opacity:1;fill-rule:nonzero;stroke:none"
             id="path414" />
        </g>
        <g
           id="g416">
          <g
             id="g418" />
          <g
             id="g430">
            <g
               clip-path="url(#clipPath422)"
               opacity="0.199997"
               id="g428">
              <g
                 transform="translate(221.0368,127.2235)"
                 id="g426">
                <path
                   d="M 0,0 C 0.417,-0.306 0.678,-0.412 1.158,-0.586 1.594,-0.145 2.004,0.27 2.44,0.712 2.337,0.864 2.239,1.006 2.139,1.14 1.454,0.812 0.769,0.499 0.084,0.214 0.056,0.142 0.028,0.072 0,0 m -14.395,-3.523 c 0.012,0.074 0.022,0.146 0.033,0.218 -0.655,-0.063 -1.29,-0.114 -1.902,-0.153 0.403,-0.546 1.266,-0.663 1.869,-0.065 m 5.473,-12.335 c 0.323,0.047 0.839,0.145 1.495,0.281 -0.396,0.63 -1.569,0.914 -2.106,-0.289 0.213,-0.017 0.419,-0.02 0.611,0.008 M -19.81,-6.02 c 0.176,-0.267 0.347,-0.528 0.602,-0.915 0.488,0.023 0.924,0.046 1.309,0.065 0.964,1.176 0.071,1.937 -1.086,2.267 -0.676,-0.332 -0.723,-0.88 -0.825,-1.417 m 16.024,-6.622 c -0.826,0.201 -0.882,1.385 -1.873,1.217 -0.282,-0.35 -0.594,-0.732 -0.918,-1.133 0.085,-0.313 0.167,-0.609 0.241,-0.879 1.992,-0.25 2.148,-0.2 2.55,0.795 m 4.349,5.744 c 1.373,-0.956 1.844,0.686 2.024,1.801 -1.675,0.372 -3.4,0.201 -2.024,-1.801 m -2.285,5.437 c -2.045,0.058 -1.687,-1.2 -1.026,-2.556 1.563,-0.241 2.623,1.86 1.026,2.556 M 1.42,-12.027 c 1.313,2.021 -2.189,-0.015 -1.352,-1.036 0.041,-0.336 0.14,-0.551 0.267,-0.701 0.708,0.176 1.441,0.36 2.199,0.552 0.314,0.519 -0.687,0.856 -1.114,1.185 m -11.861,6.629 c -1.414,0.841 -4.338,-0.638 -1.986,-1.776 1.284,-0.158 2.348,0.163 1.986,1.776 m 1.839,1.004 c 0.324,0.501 0.64,0.99 1.015,1.567 -0.041,0.219 -0.096,0.403 -0.156,0.571 -0.741,-0.167 -1.468,-0.308 -2.185,-0.437 -0.061,-0.242 -0.097,-0.508 -0.094,-0.794 0.474,-0.336 0.67,-1.029 1.42,-0.907 m -4.918,-8.54 c 0.739,-0.744 1.547,-0.97 2.46,-0.84 0.763,1.189 0.564,1.309 -0.349,2.122 -1.014,0.921 -1.599,-0.57 -2.111,-1.282 m 9.447,6.394 c -0.497,2.218 -1.457,2.096 -2.931,0.7 0.25,-1.114 1.219,-1.204 1.922,-1.629 0.485,0.178 0.903,0.349 1.009,0.929 m -10.55,-4.182 c 1.165,0.682 0.962,2.482 -0.441,2.675 -2.077,-0.116 -1.507,-3.224 0.441,-2.675 m 6.389,0.379 c 1.347,0.355 1.477,0.618 0.906,1.844 -0.473,0.856 -1.511,0.119 -2.28,0.051 -0.115,-0.305 -0.241,-0.637 -0.395,-1.048 0.496,-0.696 0.883,-1.351 1.769,-0.847 m 5.205,-0.058 c 0.496,-0.126 0.931,-0.236 1.348,-0.341 0.673,0.296 0.821,0.967 1.232,1.422 -0.256,0.396 -0.474,0.731 -0.7,1.078 -1.564,0.15 -2.994,-0.504 -1.88,-2.159 m -19.835,6.923 c 0.194,-0.644 0.689,-1.196 1.144,-0.593 0.021,0.247 0.149,0.403 0.311,0.527 -0.538,0.017 -1.026,0.04 -1.455,0.066 M 4.575,-4.091 v -0.276 c 2.038,-0.534 1.702,3.135 0,3.034 V -2.16 C 3.93,-1.999 3.658,-2.551 3.09,-2.851 3.504,-3.469 3.752,-4.087 4.575,-4.091 m 7.211,-4.334 c -0.345,-0.222 -0.675,-0.436 -1.181,-0.759 1.214,-2.672 3.649,-0.088 1.181,0.759 m 22.651,8.383 c 0.001,0.01 0.001,0.021 0.001,0.031 1.214,-0.422 1.946,1.303 0.654,1.61 -1.39,0.392 -2.668,-1.743 -0.655,-1.641 m 2.303,17.198 c 0.364,-0.478 0.683,-0.897 1.064,-1.4 0.341,0.95 1.403,0.156 1.46,1.298 -0.796,0.449 -1.361,1.083 -2.285,1.042 -0.099,-0.386 -0.173,-0.685 -0.239,-0.94 m 0.013,-19.689 c 0.392,0.177 0.764,0.352 1.114,0.525 -0.538,0.009 -0.983,-0.212 -1.114,-0.525 m 2.321,5.714 C 39.049,3.889 39.281,4.572 38.394,5.075 37.937,4.578 37.04,4.754 36.752,3.904 37.041,3.54 37.347,3.155 37.641,2.784 38.218,2.706 38.612,3.027 39.074,3.181 M 17.063,-9.265 c 0.713,0.206 1.424,0.415 2.132,0.625 -0.846,0.524 -2.211,0.512 -2.132,-0.625 M 12.512,3.09 C 13.015,3.911 12.332,4.973 11.516,5.428 10.848,5.153 10.602,4.584 10.385,3.91 10.847,2.846 11.647,2.937 12.512,3.09 m 0.92,-2.422 c 0.562,-0.492 1.091,-0.958 1.724,-1.514 0.433,0.327 0.84,0.602 0.996,1.07 -0.704,1.835 -2.07,1.812 -2.72,0.444 m 0.279,-6.715 c -0.453,-2.011 2.148,-1.636 2.159,-0.079 -0.271,1.273 -2.44,1.808 -2.159,0.079 m 27.663,6.514 c 0.093,0.172 0.175,0.47 0.247,0.863 -0.706,-0.282 -1.219,-0.778 -1.646,-1.422 0.094,-0.21 0.22,-0.362 0.362,-0.485 0.501,0.37 0.861,0.72 1.037,1.044 m -7.959,19.221 c 0.935,-0.262 1.877,-0.77 2.578,0.669 -0.748,1.595 -3.305,1.42 -2.578,-0.669 m 7.722,-0.584 c 0.321,0.149 0.563,0.27 0.75,0.387 -0.015,0.62 -0.031,1.25 -0.049,1.89 -1.342,0.227 -1.463,0.11 -1.898,-1.274 0.224,-0.54 0.664,-0.827 1.197,-1.003 M 25.598,2.845 C 26.113,4.061 25.644,6.22 24.301,4.76 24.155,4.29 23.923,4.123 23.466,4.049 22.204,3.069 24.785,2.354 25.598,2.845 m 13.691,8.231 c -0.58,0.232 -1.115,0.445 -1.699,0.679 -0.257,-0.231 -0.526,-0.474 -0.837,-0.753 -0.355,-2.368 3.152,-2.006 2.536,0.074 M 9.089,-5.918 C 9.162,-5.62 9.156,-5.311 8.924,-5.064 8.296,-4.289 6.633,-4.9 7.028,-5.93 c 0.206,-0.457 0.283,-0.917 0.236,-1.585 1.138,0.462 2.188,0.031 1.825,1.597 m 9.897,15.045 c 0.588,0.488 0.378,0.957 0.253,1.443 -0.136,1.171 -0.884,1.034 -1.801,0.882 -0.929,-1.453 -0.134,-2.781 1.548,-2.325 m 13.997,8.338 c -0.37,0.395 -0.645,0.822 -1.266,1.011 -0.62,-0.837 -1.049,-1.134 -2.086,-1.379 1.226,-1.655 2.84,-1.789 3.352,0.368 m -7.962,-5.636 c -0.9,-0.182 -1.488,-0.579 -1.497,-1.778 1.675,-2.278 3.896,0.451 1.497,1.778 m 2.026,-3.95 C 27.186,7.72 27.325,7.558 27.501,7.356 27.141,7.183 26.877,7.055 26.636,6.938 27.099,5.391 28.415,5.713 29.479,6.532 29.382,7.869 27.986,9.41 27.047,7.879 m -1.033,-9.703 c -1.456,0.199 -1.456,0.199 -2.629,-0.691 0.448,-2.67 3.156,-1.783 2.629,0.691 m 1.087,3.315 c -0.359,-1.883 0.533,-3.152 2.284,-1.734 -0.203,0.869 -0.203,0.869 -0.041,1.725 -0.672,0.561 -1.51,0.143 -2.243,0.009 m 3.232,-3.09 c -0.026,-0.571 -0.206,-0.921 -0.524,-1.428 3.053,-2.913 4.088,2.293 0.524,1.428 m -9.331,0.838 c 1.606,-0.691 2.552,2.531 0.557,2.375 -1.619,0.149 -2.097,-1.76 -0.557,-2.375 m 20.362,6.48 c 0.241,0.16 0.443,0.307 0.611,0.446 0.016,0.604 0.027,1.254 0.034,1.936 C 41.78,8.321 41.503,8.556 41.158,8.829 40.742,8.468 40.347,8.125 39.896,7.736 40.707,7.242 40.131,5.032 41.364,5.719 m 0.645,6.953 c -0.006,0.667 -0.014,1.351 -0.025,2.059 -0.672,0.299 -1.372,0.681 -1.949,0.204 -0.399,-1.612 1.062,-2.553 1.974,-2.263 m -7.6,-0.167 c 1.867,-0.369 2.126,2.179 0.323,2.627 -1.46,-0.521 -2.186,-2.28 -0.323,-2.627 m -5.074,0.306 c 0.296,1.061 -0.037,1.793 -1.023,2.281 -0.416,-0.276 -0.827,-0.548 -1.274,-0.842 -0.287,-2.048 0.805,-2.351 2.297,-1.439 M 7.296,-11.973 c 0.48,0.127 0.961,0.255 1.45,0.387 -0.107,0.078 -0.208,0.163 -0.337,0.217 -0.543,-0.083 -0.883,-0.305 -1.113,-0.604 M 32.431,4.65 c -0.622,1.262 -2.405,0.088 -2.595,-1.022 1.34,-1.602 3.626,-1.403 2.595,1.022 m -19.6,-7.758 c -0.228,0.919 -0.557,1.633 -1.651,1.651 -0.388,-0.308 -0.81,-0.644 -1.335,-1.06 0.567,-1.438 2.314,-2.563 2.986,-0.591 m 11.941,21.904 c -0.689,-0.631 -1.112,-1.011 -1.635,-1.641 0.919,-2.68 4.924,-0.359 1.635,1.641 m 3.391,-23.253 c -0.732,-0.522 -1.553,-1.094 -1.465,-1.842 0.859,0.282 1.701,0.565 2.515,0.846 -0.166,0.492 -0.331,0.904 -1.05,0.996 m 7.109,10.268 c 0.503,0.25 0.637,0.796 1.04,1.251 -1.817,3.803 -4.74,-0.325 -1.04,-1.251 m -3.64,6.23 c -0.815,-0.408 -1.426,-0.921 -1.868,-1.976 1.507,-1.466 1.856,-0.823 3.298,0.38 -0.563,0.542 -0.66,1.389 -1.43,1.596 m -9.493,3.196 c -1.224,0.626 -1.488,-1.087 -2.253,-1.614 1.136,-2.485 4.405,-0.238 2.253,1.614 M 17.755,-4.369 c 0.604,-0.267 0.999,0.517 1.602,0.54 1.116,0.784 -0.494,1.476 -0.796,2.382 -1.893,-0.138 -2.381,-1.928 -0.806,-2.922 m 4.076,9.913 c 0.946,1.249 1.433,3.415 -0.884,2.927 -1.461,-0.663 -0.933,-3.178 0.884,-2.927 m -2.504,10.735 c 0.985,1.121 -0.577,2.52 -1.642,2.149 -0.226,-0.743 -0.459,-1.467 -0.705,-2.157 1,-0.868 1.326,-0.614 2.347,0.008 m 8.003,2.756 c 1.964,-1.093 2.554,1.305 1.448,2.644 -1.497,0.066 -2.988,-1.461 -1.448,-2.644 m -4.595,2.099 c -0.439,0.347 -0.921,1.218 -1.544,0.735 -2.049,-1.785 -0.76,-2.535 1.275,-2.942 0.24,0.854 1.013,1.521 0.269,2.207 M 15.707,8.461 c -2.718,0.722 -3.078,-3.664 -0.099,-2.605 0.278,0.409 0.554,0.818 0.823,1.215 -0.24,0.46 -0.466,0.894 -0.724,1.39 M 8.526,2.165 C 8.052,1.929 7.649,1.729 7.216,1.513 c -1.942,-4.07 5.316,-2.36 1.31,0.652 m 7.949,11.499 c -0.137,0.146 -0.238,0.318 -0.328,0.493 -0.234,-0.545 -0.474,-1.075 -0.725,-1.574 0.377,0.175 0.748,0.512 1.053,1.081 M 21.45,-7.72 c 0.524,0.575 1.036,1.134 1.568,1.716 -1.089,2.078 -2.573,1.799 -3.261,-0.354 0.459,-0.621 0.731,-1.418 1.693,-1.362 m -3.386,9.916 c 2.338,0.198 1.234,4.223 -0.59,2.984 -1.259,-1.496 -1.112,-2.051 0.59,-2.984 m 13.157,20.043 c 0.185,0.48 0.605,0.704 1.064,0.77 0.067,0.324 0.113,0.546 0.158,0.767 h 0.552 c -0.231,1.016 -3.591,1.525 -2.76,0 h 0.553 c -0.044,-0.698 -0.69,-1.288 0.433,-1.537 M 4.575,-8.231 v -0.275 c -0.208,0.045 -0.414,0.091 -0.654,0.144 -0.429,-1.068 -0.631,-1.744 0.654,-2.076 2.187,-0.532 2.128,2.403 0,2.207 m 14.119,30.41 c 0.465,0.147 0.76,0.64 0.505,1.597 h 0.276 c 0.027,0.345 -0.072,0.632 -0.245,0.859 -0.17,-0.837 -0.347,-1.659 -0.536,-2.456 M 6.164,3.346 C 5.692,3.051 5.217,2.766 4.741,2.494 5.446,2.308 5.964,2.731 6.164,3.346 m 21.251,64.959 c 0.104,0.958 -0.747,0.739 -0.18,-0.049 0.061,0.015 0.121,0.032 0.18,0.049 m 13.636,-41.4 c 0.167,-0.392 0.063,-0.877 0.62,-0.988 0.01,0.007 0.017,0.013 0.026,0.02 -0.022,0.665 -0.045,1.336 -0.069,2.016 -0.279,0.213 -0.564,0.416 -0.804,0.659 -1.227,-0.745 -0.313,-1.132 0.227,-1.707 m -1.106,13.324 c 0.345,-0.541 0.797,-0.775 1.219,-0.772 -0.03,0.675 -0.06,1.353 -0.092,2.033 -0.495,-0.246 -0.978,-0.753 -1.127,-1.261 m -6.627,26.666 c 0.583,-0.825 1.685,-1.494 2.342,-0.389 0.663,1.529 -2.198,2.386 -2.342,0.389 m 6.073,-36.938 c -0.529,0.77 -0.681,1.706 -1.859,1.946 -0.248,-0.808 -0.186,-1.669 -0.363,-2.525 0.894,-0.327 1.558,-0.109 2.222,0.579 m -5.542,9.514 h 1.919 c 0.875,3.074 -3.868,1.997 -1.919,0 m -6.214,8.645 c -0.22,-0.328 -0.447,-0.662 -0.665,-0.986 1.137,-1.436 1.383,-1.455 2.67,-0.249 -0.655,1.394 -0.703,1.422 -2.005,1.235 M 39.271,37.861 c -0.388,0.193 -0.787,0.389 -1.179,0.584 -0.718,-0.224 -1.158,-0.687 -1.459,-1.309 0.928,-1.337 3.259,-1.257 2.638,0.725 m -1.102,4.823 c 0.16,0.687 0.812,0.485 1.119,0.795 -0.116,0.565 -0.221,1.087 -0.324,1.592 -0.891,0.129 -0.891,0.129 -1.759,-0.327 0.15,-0.989 0.15,-0.989 -0.254,-1.831 0.571,-0.506 1.125,-0.62 1.218,-0.229 M 22.967,33.693 c -0.586,1.325 -0.925,1.514 -2.16,1.118 -0.075,-0.652 -0.154,-1.298 -0.236,-1.937 0.943,-0.158 1.776,-0.178 2.396,0.819 m 7.688,2.652 c 1.149,-0.615 1.869,-0.008 2.04,1.237 -1.113,1.432 -4.054,0.132 -2.04,-1.237 m 0.739,26.002 c 2.374,0.527 0.915,3.537 -1.056,2.334 -0.066,-1.201 0.055,-1.46 1.056,-2.334 M 21.885,48.405 c -0.042,-0.835 -0.087,-1.668 -0.136,-2.498 1.279,0.435 1.254,2.156 0.136,2.498 m 3.793,22.993 c -0.942,0.182 -2.096,-0.241 -2.292,-1.222 0.479,-1.834 3.979,-0.724 2.292,1.222 m 0.069,-33.2 c -0.449,0.143 -0.831,0.265 -1.194,0.382 -3.47,-2.112 2.259,-4.214 1.194,-0.382 m 2.672,50.015 c -0.98,-0.294 -1.615,-0.817 -1.56,-1.895 0.809,-1.423 2.444,-0.744 2.465,0.77 -0.201,0.439 -0.48,0.847 -0.905,1.125 m -0.6,-53.309 c -0.423,-0.176 -1.027,-0.324 -0.981,-0.867 0.336,-0.573 0.646,-1.102 1.026,-1.75 1.7,0.123 1.948,3.831 -0.045,2.617 m -0.157,40.014 c -0.548,-0.339 -0.79,-0.813 -0.939,-1.343 0.172,-1.221 2.168,-1.491 2.616,-0.325 -0.13,0.485 -0.241,0.9 -0.379,1.412 -0.463,0.092 -0.899,0.177 -1.298,0.256 M 25.17,31.908 c -0.863,-0.132 -1.393,-0.485 -1.658,-1.216 0.059,-0.237 0.125,-0.498 0.182,-0.728 0.999,-0.941 2.513,-0.136 2.725,1.075 -0.475,0.33 -0.906,0.631 -1.249,0.869 m 11.491,51.606 c 0.479,-1.007 1.551,-1.208 2.201,-0.786 -0.04,0.659 -0.079,1.306 -0.117,1.942 -0.183,0.094 -0.357,0.183 -0.516,0.264 -0.873,-0.166 -1.394,-0.61 -1.568,-1.42 m -4.524,-14.22 c 0.261,0.376 0.514,0.742 0.767,1.107 -0.215,0.419 -0.416,0.81 -0.702,1.362 C 29.8,71.742 29.35,68.642 32.137,69.294 m -2.759,-2.893 c 0.145,0.752 -0.021,1.41 -0.687,1.948 -3.222,-0.825 -2.043,-3.699 0.687,-1.948 m 10.33,-19.917 c 0.519,-0.285 0.876,-0.446 1.156,-0.524 -0.033,0.695 -0.067,1.39 -0.101,2.087 -0.522,-0.378 -1.284,-0.535 -1.055,-1.563 M 26.295,83.687 c -1.666,2.869 -4.147,-1.028 -1.444,-1.73 0.59,0.472 1.218,0.929 1.444,1.73 M 26.143,63.78 c -0.749,1.295 -1.052,1.388 -2.414,0.812 -0.122,-0.512 -0.244,-1.024 -0.377,-1.58 1.183,-1.207 2.028,-0.411 2.791,0.768 m 4.95,-34.577 c 0.486,0.419 0.916,0.788 1.381,1.187 -0.021,0.472 -0.044,0.966 -0.065,1.446 -0.392,0.124 -0.693,0.22 -0.978,0.31 -1.598,-0.566 -1.917,-2.115 -0.338,-2.943 m 9.439,23.488 c -0.033,0.65 -0.066,1.3 -0.1,1.95 -0.847,-0.669 -0.523,-1.513 0.1,-1.95 M 31.001,84.62 c -0.272,-0.415 -0.517,-0.79 -0.743,-1.132 0.554,-1.653 1.058,-1.405 2.38,-0.893 0.67,1.337 -0.187,2.408 -1.637,2.025 m 5.286,-10.342 c -1.889,2.641 -4.399,-2.035 -1.224,-1.94 0.646,0.477 0.395,1.428 1.224,1.94 M 26.062,44.83 c -1.393,0.439 -2.501,0.64 -2.635,-1.167 0.804,-0.211 1.144,-1.106 1.976,-1.148 0.984,0.548 0.693,1.408 0.659,2.315 M 36.66,77.608 c -0.266,-1.969 1.811,-2.652 2.564,-1.019 -0.017,0.283 -0.033,0.559 -0.049,0.84 -0.491,1.075 -1.492,0.92 -2.515,0.179 M 35.353,32.631 c 0.179,0.52 0.52,1.007 0.889,1.41 -0.461,0.646 -0.99,1.053 -1.898,1.261 -1.561,-1.116 -0.96,-3.148 1.009,-2.671 m -6.368,6.609 c 0.225,0.565 0.405,1.017 0.586,1.473 -2.474,2.768 -4.636,-1.837 -0.586,-1.473 m 10.563,24.737 c -0.783,1.688 -2.294,0.955 -3.357,-0.264 0.801,-0.418 1.196,-1.168 2.015,-1.275 0.517,0.435 1.125,0.761 1.342,1.539 m -18.647,37.261 c 0.042,-0.548 0.103,-1.362 0.175,-2.407 0.614,-0.047 1.35,0.446 1.697,1.187 -0.064,1.178 -1.032,1.642 -1.872,1.22 M 33.522,54.085 c -0.916,-2.076 2.142,-2.577 2.486,-0.348 -0.283,1.382 -1.791,1.459 -2.486,0.348 m -0.854,49.076 -2.69,-0.251 c 0.453,-1.042 2.47,-1.218 2.69,0.251 m 6.556,-32.28 c -0.526,1.494 -2.647,0.749 -2.853,-0.641 0.672,-1.58 3.304,-1.141 2.853,0.641 M 22.125,54.671 c -0.019,-0.664 -0.04,-1.328 -0.063,-1.992 0.356,0.203 0.69,0.504 0.936,0.876 -0.389,0.612 -0.607,0.941 -0.873,1.116 M 41.061,32.312 c 0.149,0.09 0.274,0.167 0.394,0.24 -0.035,0.871 -0.07,1.749 -0.107,2.637 -0.032,0.009 -0.057,0.025 -0.09,0.033 -1.542,-1.268 -1.584,-2.035 -0.197,-2.91 M 24.693,75.358 c 2.09,0.587 2.218,2.945 -0.283,2.631 -1.12,-1.544 -1.078,-1.966 0.283,-2.631 m 4.105,-49.389 c 1.196,0.281 0.284,1.847 -0.025,2.574 -0.852,1.159 -1.422,-0.668 -1.971,-1.189 -0.664,-1.241 1.091,-1.236 1.996,-1.385 m 9.154,32.337 c -0.991,0.533 -1.154,-0.837 -1.347,-1.478 0.615,-1.199 2.223,-1.617 2.915,-0.231 0.284,0.886 -1.028,1.238 -1.568,1.709 m -4.28,22.983 c -1.473,-2.042 1.431,-2.707 2.805,-1.341 -0.842,0.938 -1.519,2.381 -2.805,1.341 m 1.334,-32.573 c -1.557,-0.641 -1.69,-0.905 -1.263,-2.611 0.613,0.055 1.147,-0.499 1.823,-0.261 0.941,0.97 0.472,1.982 -0.56,2.872 m -7.91,43.747 c 3.07,-0.744 3.437,3.061 0.44,2.168 -1.215,-0.184 -0.882,-1.306 -0.44,-2.168 M 22.289,61.328 c -0.014,0.009 -0.028,0.012 -0.042,0.021 -0.005,-0.63 -0.013,-1.261 -0.022,-1.894 0.326,0.484 0.439,1.197 0.064,1.873 m -0.135,13.535 c 0.017,-0.751 0.032,-1.508 0.045,-2.274 0.102,0.028 0.205,0.057 0.312,0.1 0.845,0.919 0.59,1.814 -0.357,2.174 m 3.725,27.664 -1.42,-0.132 c 0.518,-0.143 1.051,-0.101 1.42,0.132 m 10.78,-5.136 c -0.024,-1.07 0.701,-1.697 1.413,-1.786 -0.057,0.911 -0.111,1.757 -0.16,2.53 -0.534,0.036 -1.019,-0.112 -1.253,-0.744 m -6.964,-0.337 c 0.209,-0.901 0.639,-1.534 1.552,-1.806 0.354,0.235 0.725,0.481 1.025,0.681 v 1.693 c -1.119,1.31 -1.676,0.013 -2.577,-0.568 M 21.314,95.16 c 0.054,-0.899 0.111,-1.866 0.168,-2.908 0.486,-0.138 0.936,0.056 0.997,0.871 -0.167,0.524 0.209,0.847 0.301,1.322 -0.395,0.572 -0.962,0.779 -1.466,0.715 m 1.487,-55.3 c 0.081,1.139 -0.592,1.954 -1.32,2.068 -0.068,-0.895 -0.143,-1.783 -0.222,-2.665 0.086,-0.03 0.178,-0.055 0.281,-0.069 0.36,0.189 0.794,0.419 1.261,0.666 m 16.98,26.931 c -0.006,0.111 -0.012,0.222 -0.018,0.333 -0.02,-0.04 -0.042,-0.075 -0.061,-0.117 0.018,-0.08 0.051,-0.145 0.079,-0.216 m -9.775,22.947 c 1.18,-2.015 2.546,-1.071 2.762,0.948 -0.709,1.355 -3.059,0.599 -2.762,-0.948 m -5.617,1.877 c -0.491,-0.438 -0.79,-0.663 -1.388,-0.961 0.729,-0.667 0.635,-1.564 1.686,-1.783 2.832,0.168 1.513,2.181 -0.298,2.744 m 6.217,-46.589 c -0.41,-0.781 -1.188,-1.895 0.354,-1.924 0.133,-0.271 0.266,-0.541 0.453,-0.919 2.734,0.63 1.205,3.423 -0.807,2.843 M 21.97,81.393 c 0.027,-0.784 0.053,-1.586 0.077,-2.398 1.146,1.043 0.702,2.022 -0.077,2.398 m 2.669,16.815 c -1.517,-0.179 -1.955,-2.706 -0.04,-2.499 2.402,-0.116 2.096,2.113 0.04,2.499 m -2.961,-9.756 c 0.047,-0.982 0.093,-2.004 0.138,-3.062 1.544,0.636 0.821,2.822 -0.138,3.062 m 9.563,-36.431 c -0.39,-0.322 -0.81,-0.667 -1.203,-0.99 -0.37,-1.736 0.554,-1.573 1.967,-1.875 0.34,0.594 0.651,1.138 0.97,1.693 -0.491,0.584 -0.93,1.098 -1.734,1.172 m 7.943,-0.995 c -1.62,2.45 -4.004,-1.557 -1.267,-2.191 1.012,0.333 1.814,1.288 1.267,2.191 m -16.93,16.977 c 0.004,-0.657 0.008,-1.317 0.009,-1.981 0.259,0.224 0.529,0.458 0.78,0.675 -0.174,0.59 -0.457,1.028 -0.789,1.306 m 8.251,-12.091 c 1.636,-0.28 1.83,-0.191 2.489,1.186 -0.765,2.51 -4.176,0.87 -2.489,-1.186 m 7.154,46.073 c 0.002,-0.002 0.004,-0.002 0.006,-0.004 -0.068,1.058 -0.106,1.636 -0.106,1.636 l -0.814,-0.076 c -0.177,-0.447 0.027,-0.907 0.914,-1.556 m -4.29,-40.932 c -0.084,-0.339 -0.15,-0.602 -0.212,-0.85 0.242,-0.375 0.465,-0.716 0.7,-1.079 0.431,-0.116 0.859,-0.232 1.276,-0.344 0.408,0.536 0.765,1.006 1.19,1.565 -0.458,1.696 -1.76,1.593 -2.954,0.708 M 33.34,26.714 c 0.398,-1.063 2.361,-1.049 2.707,0.083 -0.084,2.851 -2.915,2.649 -2.707,-0.083 M 23.282,56.66 c 0.533,-0.22 0.773,-1.148 1.331,-1.175 0.806,0.158 1.43,0.777 1.788,1.513 -0.782,1.75 -3.368,1.934 -3.119,-0.338 m 12.949,43.908 c -0.969,1.504 -2.525,1.448 -2.923,-0.42 0.525,-1.896 2.725,-1.947 2.923,0.42 M 29.656,54.165 c -0.561,0.344 -1.127,0.692 -1.628,1 -0.697,-0.206 -1.216,-0.462 -1.6,-1.101 0.491,-2.773 2.467,-2.248 3.228,0.101 m -0.652,44.391 c 0.225,0.519 0.441,1.016 0.658,1.514 -0.123,0.747 -0.719,1.122 -1.302,1.634 -2.507,-0.119 -1.546,-3.71 0.644,-3.148 M 23.869,49.143 c 0.714,-0.062 1.484,-0.241 2.274,0.482 0.219,3.609 -4.337,2.258 -2.274,-0.482 m 6.114,27.982 c 0.135,-2.912 3.48,-1.716 2.817,0.438 -0.914,0.934 -2.497,1.1 -2.817,-0.438 m 4.591,8.16 c 1.884,0.237 1.85,2.923 0.084,3.18 -0.841,-0.242 -1.472,-0.98 -1.58,-1.804 -0.004,-0.662 1.129,-0.876 1.496,-1.376 m 3.417,3.288 c 0.183,0.059 0.349,0.13 0.504,0.209 -0.057,0.944 -0.114,1.862 -0.168,2.734 -0.793,0.189 -1.685,-0.425 -1.941,-1.659 0.326,-0.613 0.851,-1.025 1.605,-1.284 M 29.662,80.5 c -0.162,0.73 -0.722,0.984 -1.275,1.339 -0.9,-0.578 -1.813,-0.712 -1.994,-1.84 1.495,-1.708 2.645,-1.901 3.269,0.501 m 6.504,12.433 c 0.641,1.722 -3.162,2.902 -3.077,0.586 0.531,-2.132 1.726,-1.83 3.077,-0.586 M 23.036,26.461 v 1.475 c -0.649,0.384 -1.19,0.7 -1.699,1.001 -1.262,-0.75 -1.285,-0.788 -1.209,-2.007 0.49,-0.418 0.966,-0.824 1.471,-1.254 0.501,0.273 0.97,0.53 1.437,0.785 m 3.713,32.562 c 3.916,-0.827 2.901,3.692 0.919,2.739 -1.174,-0.674 -1.59,-1.435 -0.919,-2.739 M 36.857,23.776 c 0.163,-1.278 1.232,-1.664 2.311,-1.955 0.586,0.599 0.476,1.286 0.449,1.955 h -0.276 c 0.694,2.156 -2.999,1.871 -2.759,0 z m -10.76,0 c -0.09,-1.765 -2.956,-1.586 -3.036,0 h 0.276 c 0.293,0.82 0.396,1.615 1.462,1.777 0.761,-0.334 1.664,-0.59 1.574,-1.777 z"
                   style="fill:#4a1434;fill-opacity:1;fill-rule:nonzero;stroke:none"
                   id="path424" />
              </g>
            </g>
          </g>
        </g>
        <g
           id="g432">
          <g
             id="g434" />
          <g
             id="g446">
            <g
               clip-path="url(#clipPath438)"
               opacity="0.199997"
               id="g444">
              <g
                 transform="translate(167.1186,147.3559)"
                 id="g442">
                <path
                   d="M 0,0 C 0.594,-0.719 0.724,-1.914 1.783,-1.349 3.743,-0.115 1.548,2.691 0,0 m -8.252,-8.858 c -0.441,-0.225 -0.881,-0.447 -1.416,-0.72 -0.644,-2.186 1.918,-3.088 2.437,-0.771 -0.546,0.312 -0.34,1.167 -1.021,1.491 m -6.589,6.595 c -0.553,-0.103 -1.078,-0.2 -1.608,-0.299 -0.127,-0.362 -0.245,-0.698 -0.362,-1.031 0.812,-2.204 4.723,-0.465 1.97,1.33 m 0.673,-8.824 c 0.069,0.458 0.135,0.903 0.216,1.436 -0.519,0.304 -0.971,0.57 -1.467,0.86 -0.364,-0.249 -0.735,-0.502 -1.066,-0.728 -0.301,-0.882 0.166,-1.43 0.695,-1.961 0.607,-0.145 1.164,-0.068 1.622,0.393 m 3.813,-15.793 c -0.687,0.881 -0.57,2.154 -2.181,1.452 -1.816,-2.459 0.755,-3.408 2.181,-1.452 m -3.428,-2.74 c -0.475,0.1 -0.806,0.267 -1.107,0.544 0.268,-0.598 0.527,-1.139 0.77,-1.61 0.116,0.366 0.227,0.715 0.337,1.066 M 7.575,-1.314 8.929,0.839 C 8.878,0.881 8.847,0.926 8.79,0.968 7.309,1.796 5.646,-1.086 7.575,-1.314 m -13.504,0.057 c 1.861,-0.149 2.148,0.15 1.932,1.942 -0.935,0.883 -2.626,0.525 -2.634,-0.944 0.218,-0.309 0.473,-0.671 0.702,-0.998 m -6.066,-7.166 c 1.928,0.908 1.911,2.243 -0.174,2.856 -0.921,-0.171 -0.849,-1.01 -1.279,-1.529 0.556,-0.411 0.688,-1.162 1.453,-1.327 m 10.887,3.512 c 1.548,2.343 -1.201,3.983 -2.208,1.39 0.171,-0.456 0.326,-0.864 0.492,-1.302 0.695,0.168 1.008,0.145 1.716,-0.088 m -10.102,-7.292 c -1.069,0.16 -1.989,-0.51 -1.973,-1.73 0.946,-2.049 4.565,0.241 1.973,1.73 m -6.762,-6.727 c 0.143,-0.767 0.295,-1.502 0.459,-2.208 0.784,0.617 0.718,1.494 -0.459,2.208 m 17.549,9.22 c -0.212,0.949 -1.897,1.167 -2.495,0.56 -1.517,-2.334 2.182,-3.328 2.495,-0.56 M -12.13,0.394 c -0.597,-0.106 -1.166,-0.266 -1.353,-0.947 0.347,-0.705 1.414,-0.579 1.839,-1.267 0.743,-0.293 0.752,0.652 1.008,1.108 0.877,1.289 -1.897,3.242 -1.494,1.106 M 4.737,-2.163 C 4.298,-2.386 3.816,-2.63 3.383,-2.848 3.271,-3.372 3.177,-3.807 3.088,-4.226 3.854,-4.898 4.715,-5.184 5.381,-4.8 l 0.472,0.749 c -0.148,0.684 0.034,1.533 -1.116,1.888 m -18.616,-15.556 c 0.156,1.051 0.006,1.941 -1.059,2.56 -2.925,-0.479 -0.997,-3.986 1.059,-2.56 m -3.007,11.162 c -0.72,0.909 -1.284,1.209 -1.876,0.961 -0.091,-0.955 -0.134,-1.863 -0.144,-2.737 0.7,-0.207 1.615,0.479 2.02,1.776 m 8.884,-8.863 c -0.977,-0.223 -1.801,-0.471 -2.203,-1.443 1.314,-2.745 4.946,-0.065 2.203,1.443 m -8.893,15.195 c -0.225,0.832 -0.294,1.064 -0.774,1.306 -0.175,-0.807 -0.334,-1.6 -0.476,-2.38 0.511,0.133 0.962,0.392 1.25,1.074 m 9.605,-2.427 c -0.752,0.81 -1.529,0.355 -2.282,0.072 -0.865,-0.635 -0.13,-2.493 1.036,-2.56 1.129,0.483 1.579,1.3 1.246,2.488 m -3.596,-18.424 c 0.113,0.481 0.217,0.914 0.313,1.316 -0.67,1.571 -3.11,1.038 -2.952,-0.548 0.657,-1.022 1.63,-1.846 2.639,-0.768 m 0.711,-2.307 c 0.182,-0.875 0.833,-1.045 1.491,-1.344 4.001,0.661 -0.439,4.722 -1.491,1.344 M 0.602,-8.387 c 1.615,0.568 1.615,0.568 2.139,1.334 -0.283,0.739 -0.285,1.726 -1.486,1.744 -1.33,-0.498 -2.174,-2.153 -0.653,-3.078 m -4.172,1.589 c -0.293,1.2 -1.675,2.3 -2.459,0.861 0.035,-0.546 -0.545,-0.667 -0.739,-1.015 0.498,-2.006 2.511,-1.423 3.198,0.154 m -0.816,-11.98 h -1.735 c -1.303,-1.731 -0.029,-2.552 1.13,-2.51 l 1.131,1.799 c -0.124,0.219 -0.283,0.452 -0.526,0.711 m 1.526,0.878 1.381,2.195 c -0.258,0.176 -0.516,0.351 -0.788,0.536 -1.491,-0.926 -1.286,-2.108 -0.593,-2.731 m -12.234,-7.141 c 3.108,2.322 -0.224,5.193 -1.682,1.479 0.219,-0.433 0.401,-0.793 0.566,-1.122 0.405,-0.13 0.748,-0.238 1.116,-0.357 m 11.146,10.809 c -0.03,0.759 0.117,1.409 0.493,2.084 -1.232,0.83 -2.877,0.335 -3.198,-1.178 0.614,-1.651 1.639,-1.898 2.705,-0.906 m -12.953,0.375 c 0.063,0.418 0.019,0.99 -0.048,1.413 -0.547,0.482 -1.24,0.719 -1.866,0.539 0.062,-1.076 0.154,-2.103 0.265,-3.098 0.483,-0.018 1.067,0.319 1.649,1.146 M -2.047,1.52 c 0.644,0.456 1.407,0.729 1.168,1.636 h 0.276 C -1.147,5.092 -2.07,5.255 -3.328,3.682 -3.235,3.478 -3.16,3.317 -3.086,3.156 -3.046,2.411 -2.945,1.706 -2.047,1.52 m -7.805,0.811 c 1.193,-0.325 2.77,-1.266 2.627,0.825 0.228,0.972 -1.204,1.401 -1.974,1.213 -0.462,-0.265 -0.721,-0.812 -1.062,-1.213 0.14,-0.282 0.279,-0.562 0.409,-0.825 M 4.41,1.765 C 5.034,1.539 6.694,2.324 6.019,3.156 6.44,5.138 3.452,4.969 3.536,3.156 H 3.259 C 3.313,2.426 4.043,2.242 4.41,1.765 m -8.669,30.406 c 0.658,2.387 -0.489,2.865 -2.118,1.367 -0.027,-0.062 -0.053,-0.12 -0.08,-0.182 0.146,-1.051 1.336,-1.548 2.198,-1.185 M 1.887,11.962 c 0.14,0.138 0.36,0.357 0.575,0.572 -0.166,0.618 -0.707,0.867 -0.382,1.44 -0.485,2.136 -4.197,-1.4 -0.193,-2.012 m 5.064,2.357 C 6.863,13.562 6.794,12.952 6.978,12.33 7.345,12.303 7.684,12.247 8.014,12.222 7.828,12.885 7.639,13.566 7.446,14.27 7.283,14.286 7.128,14.301 6.951,14.319 M -4.016,6.044 C -4.105,6.606 -4.187,7.122 -4.272,7.659 -7.632,8.483 -7.057,4.3 -4.016,6.044 M 3.376,23.079 C 3.67,21.989 4.459,22.246 5.251,22.592 5.088,23.243 4.927,23.891 4.771,24.533 3.807,24.548 3.715,24.348 3.376,23.079 M 2.639,33.507 C 2.169,33.757 1.694,34.009 1.252,34.243 0.613,34.051 0.084,33.801 -0.27,33.142 0.336,31.556 2.905,31.651 2.639,33.507 M 4.896,17.927 C 4.365,17.412 3.725,16.976 3.073,16.61 2.878,15.505 4.393,15.782 5.069,15.58 6.548,16.772 6.986,16.504 4.896,17.927 M -2.126,28.74 c 1.233,0.222 2.213,1.414 0.731,2.286 -1.298,0.735 -3.123,-2.613 -0.731,-2.286 m -8.777,-8.133 c -0.215,0.062 -0.428,0.151 -0.644,0.231 -0.272,-0.723 -0.544,-1.454 -0.814,-2.194 0.939,-0.389 2.277,0.422 1.458,1.963 M 2.392,39.275 c 0.012,0.02 0.017,0.037 0.029,0.056 -0.169,0.94 -0.616,1.462 -1.207,1.698 C 0.567,40.893 -0.039,40.37 0.002,39.381 0.554,38.383 1.648,38.677 2.392,39.275 M 5.233,11.367 C 4.357,11.108 3.542,10.967 3.126,10.001 3.54,9.58 3.975,9.137 4.466,8.634 4.928,8.963 5.514,8.742 6.073,9.086 5.491,9.524 5.916,9.907 6.007,10.316 5.768,10.641 5.53,10.966 5.233,11.367 m -8.899,4.881 c 0.604,-0.464 1.159,-0.892 1.693,-1.304 1.069,0.803 1.123,0.861 1.605,1.694 -0.913,1.601 -2.468,0.936 -3.298,-0.39 m -9.451,-2.804 c 0.01,-1.589 1.712,-2.09 2.383,-0.536 0.967,1.891 -1.947,2.378 -2.383,0.536 m 4.887,4.423 c -0.607,-0.238 -1.101,-0.432 -1.691,-0.663 -0.069,-1.116 0.737,-3.298 1.791,-1.809 0.015,0.505 0.306,0.692 0.645,0.933 0.808,0.633 -0.226,1.309 -0.745,1.539 m 1.436,8.753 c 0.67,-1.521 3.446,-1.594 2.78,0.402 -0.515,1.371 -2.267,1.236 -2.78,-0.402 M 2.631,7.134 C 2.264,7.52 1.919,7.995 1.304,8.304 -2.24,6.15 2.421,3.76 2.631,7.134 M 3.736,29.016 C 3.65,29.412 3.566,29.803 3.487,30.186 3.406,30.029 3.333,29.855 3.282,29.645 3.463,29.381 3.604,29.181 3.736,29.016 M 7.355,7.751 C 6.425,6.313 7.443,4.685 9.017,5.407 9.556,5.552 9.48,6.064 9.455,6.544 9.664,7.936 8.292,7.781 7.355,7.751 M -9.903,9.878 c 0.461,-0.891 1.515,-1.781 2.499,-1.056 0.718,2.022 -2.14,3.915 -2.499,1.056 m 8.027,27.965 c -0.416,-0.209 -0.893,-0.45 -1.383,-0.698 -0.664,-1.992 1.723,-2.682 2.708,-1.195 -0.301,0.749 -0.295,1.606 -1.325,1.893 M -2.535,22.179 c 2.793,-0.254 2.327,2.734 -0.274,2.643 -0.666,-0.935 -0.704,-1.78 0.274,-2.643 M -3.632,9.541 c 0.802,-0.471 1.348,-1.208 2.351,-1.175 2.068,2.484 -1.333,3.98 -2.351,1.175 m -0.304,3.34 c -0.127,0.5 -0.237,0.937 -0.362,1.427 -0.98,0.551 -2.266,0.054 -2.626,-1.017 0.585,-1.464 2.131,-1.881 2.988,-0.41 m -10.952,-1.608 c -0.297,-0.933 -0.583,-1.866 -0.858,-2.796 0.038,-0.048 0.062,-0.098 0.106,-0.146 2.476,0.278 2.017,2.761 0.752,2.942 M 1.635,25.21 C 2.339,25.331 2.75,25.767 2.974,26.536 2.019,29.884 -2.548,25.695 1.635,25.21 M -13.535,6.638 c 0.535,-1.727 3.017,-1.487 3.181,0.303 -1.03,1.387 -2.465,1.383 -3.181,-0.303 m 9.601,32.342 c 0.022,0.041 0.036,0.079 0.055,0.12 -0.017,-0.037 -0.037,-0.081 -0.055,-0.12 M -5.771,18.583 c 0.679,0.192 1.371,0.387 2.084,0.589 0.759,2.516 -2.781,2.651 -3.156,0.614 0.355,-0.399 0.7,-0.787 1.072,-1.203 m -2.15,6.197 c -0.525,-0.203 -1.058,-0.408 -1.669,-0.643 -0.551,-1.662 -0.551,-1.662 0.294,-2.448 0.49,0.091 1.058,0.191 1.53,0.265 0.812,1.386 0.788,1.746 -0.155,2.826 m 8.366,-3.598 c -1.614,-1.894 0.856,-3.433 2.465,-2.007 0.562,1.567 -1.191,2.326 -2.465,2.007 m -8.576,7.023 c 1.092,0.26 1.204,1.736 0.59,2.625 -0.351,-0.828 -0.715,-1.699 -1.088,-2.604 0.154,-0.027 0.317,-0.041 0.498,-0.021 M 10.551,3.417 c 0,0 -0.081,0.271 -0.225,0.756 C 10.133,3.939 10.047,3.605 10.158,3.156 H 9.606 C 9.721,2.942 9.868,2.754 10.015,2.565 Z M -13.572,3.156 h -0.275 c 0.277,-1.078 -0.796,-1.3 -1.561,-1.705 -0.888,0.224 -1.279,0.878 -1.475,1.705 h 0.277 c -0.324,0.491 -0.311,1.014 -0.162,1.569 1.208,-0.17 3.248,0.34 3.196,-1.569"
                   style="fill:#4a1434;fill-opacity:1;fill-rule:nonzero;stroke:none"
                   id="path440" />
              </g>
            </g>
          </g>
        </g>
        <g
           id="g448"
           transform="translate(99.0499,97.0465)">
          <path
             d="m 0,0 c 4.56,2.057 8.84,5.098 12.301,8.71 1.604,1.674 3.102,3.55 4.071,5.67 1.179,2.578 1.367,5.413 1.081,8.203 -0.342,3.337 -1.104,6.66 -1.615,9.978 -0.651,4.22 -1.269,8.445 -1.881,12.67 -0.692,4.772 -1.373,9.545 -2.026,14.322 -0.125,0.912 -1.51,0.523 -1.386,-0.382 1.105,-8.079 2.269,-16.15 3.484,-24.212 0.397,-2.636 0.768,-5.282 1.257,-7.903 0.544,-2.911 1.139,-5.884 0.715,-8.853 -0.382,-2.68 -1.715,-4.994 -3.43,-7.044 C 9.037,6.936 4.284,3.501 -0.725,1.241 -1.567,0.861 -0.837,-0.378 0,0"
             style="fill:#4a1434;fill-opacity:1;fill-rule:nonzero;stroke:none"
             id="path450" />
        </g>
        <g
           id="g452"
           transform="translate(324.9023,363.6246)">
          <path
             d="m 0,0 h 59.162 c 0.924,0 0.926,1.437 0,1.437 H 0 C -0.925,1.437 -0.926,0 0,0"
             style="fill:#4a1434;fill-opacity:1;fill-rule:nonzero;stroke:none"
             id="path454" />
        </g>
        <g
           id="g456"
           transform="translate(360.4875,110.0843)">
          <path
             d="m 0,0 c 0,-3.647 -2.957,-6.604 -6.604,-6.604 -3.647,0 -6.604,2.957 -6.604,6.604 0,3.647 2.957,6.604 6.604,6.604 C -2.957,6.604 0,3.647 0,0"
             style="fill:#87d3f6;fill-opacity:1;fill-rule:nonzero;stroke:none"
             id="path458" />
        </g>
        <g
           id="g460"
           transform="translate(312.6218,116.5746)">
          <path
             d="M 0,0 C 1.022,0.289 1.21,-0.545 1.269,-1.606 1.442,-4.723 1.703,-11.626 0.712,-12.912 -0.106,-13.971 -9.715,-8.077 -9.508,-6.761 -9.35,-5.755 -3.284,-0.93 0,0"
             style="fill:#87d3f6;fill-opacity:1;fill-rule:nonzero;stroke:none"
             id="path462" />
        </g>
        <g
           id="g464"
           transform="translate(405.0957,104.9651)">
          <path
             d="m 0,0 h -10.566 c -0.453,0 -0.82,0.367 -0.82,0.819 v 10.566 c 0,0.453 0.367,0.82 0.82,0.82 H 0 c 0.452,0 0.819,-0.367 0.819,-0.82 V 0.819 C 0.819,0.367 0.452,0 0,0"
             style="fill:#87d3f6;fill-opacity:1;fill-rule:nonzero;stroke:none"
             id="path466" />
        </g>
      </g>
    </g>
    <g
       id="g468">
      <g
         id="g470"
         clip-path="url(#clipPath474)">
        <g
           id="g476"
           transform="translate(217.7964,363.6708)">
          <path
             d="m 0,0 c -8.471,5.358 -16.331,11.602 -23.469,18.639 -0.169,-0.409 -0.338,-0.818 -0.508,-1.226 11.061,-1.164 22.122,-2.328 33.183,-3.492 0.458,-0.048 0.826,0.499 0.693,0.91 C 5.289,29.091 0.68,43.352 -3.93,57.613 -4.282,57.342 -4.634,57.072 -4.985,56.801 5.853,48.978 16.232,40.538 26.108,31.53 c 0.384,-0.35 1.068,-0.231 1.201,0.317 2.204,9.104 4.408,18.207 6.612,27.31 h -1.386 c 2.493,-7.836 4.986,-15.673 7.48,-23.51 0.17,-0.536 0.789,-0.678 1.201,-0.317 3.211,2.814 5.564,6.383 6.93,10.426 0.296,0.878 -1.091,1.255 -1.386,0.382 -1.288,-3.814 -3.536,-7.141 -6.561,-9.792 0.401,-0.106 0.801,-0.211 1.202,-0.317 -2.494,7.837 -4.987,15.674 -7.48,23.51 -0.207,0.649 -1.212,0.718 -1.386,0 -2.204,-9.103 -4.408,-18.206 -6.612,-27.31 0.4,0.106 0.801,0.212 1.201,0.317 C 17.158,41.637 6.677,50.147 -4.26,58.042 -4.771,58.41 -5.5,57.8 -5.316,57.231 -0.706,42.97 3.903,28.709 8.513,14.449 c 0.231,0.303 0.462,0.606 0.693,0.909 -11.061,1.164 -22.122,2.328 -33.183,3.492 -0.639,0.067 -0.921,-0.82 -0.508,-1.227 C -17.263,10.503 -9.296,4.18 -0.725,-1.241 0.059,-1.737 0.78,-0.494 0,0"
             style="fill:#4a1434;fill-opacity:1;fill-rule:nonzero;stroke:none"
             id="path478" />
        </g>
      </g>
    </g>
  </g>
</svg>
