<?xml version="1.0" encoding="UTF-8" standalone="no"?>
<!-- Created with Inkscape (http://www.inkscape.org/) -->

<svg
   version="1.1"
   id="svg2"
   width="647.41333"
   height="539.93335"
   viewBox="0 0 647.41333 539.93335"
   xmlns="http://www.w3.org/2000/svg"
   xmlns:svg="http://www.w3.org/2000/svg">
  <defs
     id="defs6" />
  <g
     id="g10"
     transform="matrix(1.3333333,0,0,-1.3333333,0,539.93333)">
    <g
       id="g12"
       transform="scale(0.1)">
      <path
         d="M 4877.8239,1898.7125 C 4877.8239,625.83117 3403.1017,36.8955 1987.5777,36.8955 572.06412,36.8955 -38.944063,942.18371 163.035,2325.37 c 184.04277,1260.3517 914.9442,1849.7789 2330.4682,1849.7789 1415.5136,0 2384.3103,-1003.5459 2384.3207,-2276.4364"
         style="fill:#000000;fill-opacity:1;fill-rule:nonzero;stroke:none;stroke-width:1.03102"
         id="path14" />
      <path
         d="m 1522.7,377.969 c 10.9,-58.707 48.49,-109.629 103.68,-149.719 67.45,-48.988 159.5,-67.539 237.69,-38.641 78.2,28.891 137.39,100.539 157.81,181.36 20.14,79.711 -3.52,180.679 -69.17,240.402 0,0 34.69,98.688 13.33,107.399 -9.4,7.121 -67.45,-42.661 -85.68,-65.961 l 0.66,-0.489 C 1806.53,687.43 1708.6,698.68 1615.81,629.852 1546.5,578.43 1502.82,484.949 1522.7,377.969"
         style="fill:#ffffff;fill-opacity:1;fill-rule:nonzero;stroke:none"
         id="path16" />
      <path
         d="m 1694.21,419.891 c -3.27,-30.661 -31.91,-48.411 -62.58,-45.141 -30.66,3.281 -46.82,25.801 -43.54,56.469 3.27,30.672 25.85,53.402 56.52,50.133 30.67,-3.27 52.88,-30.793 49.6,-61.461"
         style="fill:#5f5fd3;fill-opacity:1;fill-rule:nonzero;stroke:none"
         id="path18" />
      <path
         d="m 1828.25,421.102 c -3.27,-30.672 -31.91,-48.422 -62.57,-45.153 -30.67,3.281 -46.83,25.813 -43.55,56.473 3.27,30.668 25.85,53.398 56.52,50.129 30.67,-3.27 52.88,-30.789 49.6,-61.449"
         style="fill:#5f5fd3;fill-opacity:1;fill-rule:nonzero;stroke:none"
         id="path20" />
      <path
         d="m 1960.69,421.25 c -3.28,-30.66 -31.91,-48.41 -62.58,-45.141 -30.67,3.27 -46.82,25.801 -43.55,56.469 3.27,30.672 25.86,53.402 56.52,50.133 30.67,-3.27 52.88,-30.789 49.61,-61.461"
         style="fill:#5f5fd3;fill-opacity:1;fill-rule:nonzero;stroke:none"
         id="path22" />
      <path
         d="m 4468.16,1613.78 c -50.36,0 -91.18,40.82 -91.18,91.18 0,50.36 40.82,91.18 91.18,91.18 50.35,0 91.17,-40.82 91.17,-91.18 0,-50.36 -40.82,-91.18 -91.17,-91.18 z m 254.8,200.49 c -20.04,3.13 -83.01,-2.49 -83.01,-2.49 l -14.17,17.97 c 0,0 42.35,71.43 31.98,85.14 -10.36,13.71 -84.76,57.23 -97.19,51.86 -12.42,-5.38 -49.68,-57.9 -49.68,-57.9 l -26.09,3.46 c 0,0 -10.15,72.32 -39.54,70.91 -29.39,-1.41 -87.03,-20.46 -98.56,-27.91 -11.53,-7.45 5.79,-78.14 5.79,-78.14 l -19.02,-15.22 -8.19,3.92 c 0,0 -56.51,35.32 -72.65,23.21 -16.15,-12.11 -54.49,-90.82 -51.47,-100.91 3.03,-10.09 61.98,-52.48 61.98,-52.48 l -4.46,-20.18 c 0,0 -66.6,-20.18 -69.63,-39.35 -3.02,-19.18 9.09,-97.89 29.27,-99.9 20.18,-2.02 82.75,7.06 82.75,7.06 l 15.13,-17.15 c 0,0 -38.35,-73.67 -27.24,-86.79 11.09,-13.12 87.79,-52.47 99.9,-46.42 12.11,6.06 46.41,60.55 46.41,60.55 l 26.24,-2.02 c 0,0 14.13,-71.64 43.39,-68.62 29.26,3.03 85.78,25.23 96.88,33.3 11.1,8.08 -10.1,77.71 -10.1,77.71 l 19.18,17.15 c 0,0 56.51,-34.31 77.7,-20.18 21.19,14.12 55.5,80.73 50.45,90.82 -5.04,10.09 -56.51,52.47 -56.51,52.47 l 0.27,5.38 c 17.89,4.99 60.68,18.41 63.9,33.39 4.08,18.98 -3.67,98.24 -23.71,101.36"
         style="fill:#ffffff;fill-opacity:1;fill-rule:nonzero;stroke:none"
         id="path28" />
      <path
         d="m 2411.06,3901.29 14.98,45.62 17.02,-45.62 c 0,0 33.99,-5.79 34.38,-8.95 0.39,-3.1 -32.53,-12.81 -32.53,-12.81 0,0 -13.82,-44.23 -18.87,-34.21 -5.05,10.02 -9.95,32.19 -9.95,32.19 0,0 -42.8,8.89 -42.8,13.26 0,4.73 37.77,10.52 37.77,10.52"
         style="fill:#ffffff;fill-opacity:1;fill-rule:nonzero;stroke:none"
         id="path38" />
      <path
         d="m 4539.41,1231.5 20.86,63.54 23.7,-63.54 c 0,0 47.34,-8.05 47.89,-12.46 0.54,-4.32 -45.31,-17.84 -45.31,-17.84 0,0 -19.24,-61.6 -26.28,-47.65 -7.03,13.95 -13.86,44.84 -13.86,44.84 0,0 -59.61,12.38 -59.61,18.46 0,6.58 52.61,14.65 52.61,14.65"
         style="fill:#ffdd55;fill-opacity:1;fill-rule:nonzero;stroke:none"
         id="path40" />
      <path
         d="m 2122.7144,3709.0554 41.76,127.17 47.43,-127.17 c 0,0 94.75,-16.12 95.85,-24.96 1.08,-8.63 -90.68,-35.68 -90.68,-35.68 0,0 -38.52,-123.3 -52.6,-95.38 -14.08,27.92 -27.74,89.74 -27.74,89.74 0,0 -119.31,24.79 -119.31,36.95 0,13.18 105.29,29.33 105.29,29.33"
         style="fill:#ffdd55;fill-opacity:1;fill-rule:nonzero;stroke:none"
         id="path42" />
      <path
         d="m 2333.61,247.969 22.95,69.859 26.05,-69.859 c 0,0 52.06,-8.86 52.67,-13.707 0.59,-4.75 -49.83,-19.614 -49.83,-19.614 0,0 -21.16,-67.75 -28.89,-52.398 -7.74,15.34 -15.24,49.301 -15.24,49.301 0,0 -65.55,13.621 -65.55,20.301 0,7.238 57.84,16.117 57.84,16.117"
         style="fill:#ffffff;fill-opacity:1;fill-rule:nonzero;stroke:none"
         id="path44" />
      <path
         d="m 1004.75,2614.68 21.99,66.96 24.97,-66.96 c 0,0 49.89,-8.48 50.47,-13.14 0.57,-4.54 -47.75,-18.79 -47.75,-18.79 0,0 -20.27,-64.92 -27.69,-50.21 -7.41,14.7 -14.6,47.25 -14.6,47.25 0,0 -62.824,13.05 -62.824,19.45 0,6.94 55.434,15.44 55.434,15.44"
         style="fill:#ffcc00;fill-opacity:1;fill-rule:nonzero;stroke:none"
         id="path46" />
      <path
         d="m 994.64685,3517.5873 c 85.86175,94.1789 232.50435,145.916 375.60825,140.5885 l -0.9581,0.1671 c 104.1965,1.6607 238.2444,-26.5261 309.4009,-89.4197 71.1566,-62.9049 110.6951,-147.9334 115.1792,-233.3519 6.579,-125.4976 -67.8861,-251.6082 -189.4784,-325.5024 22.1134,-34.3837 54.2936,-63.8411 93.0146,-84.2037 -63.7471,-9.4848 -131.595,7.2667 -181.2642,43.1997 -1.5712,-0.5351 -3.0658,-1.1926 -4.65,-1.7165 -175.6214,-57.4993 -395.4352,-7.6792 -511.55325,115.9348 -116.1168,123.6252 -118.39331,310.2443 -5.299,434.3041"
         style="fill:#ffffff;fill-opacity:1;fill-rule:nonzero;stroke:none;stroke-width:1.19324"
         id="path50" />
      <path
         d="m 2223.41,644.031 c 0,0 231.06,-236.66 319.67,-201 88.6,35.668 -30.52,323.981 -30.52,323.981 L 2223.41,644.031"
         style="fill:#444678;fill-opacity:1;fill-rule:nonzero;stroke:none"
         id="path54" />
      <path
         d="M 1193.87,454.871 C 1220.03,329.68 1139.74,206.98 1014.55,180.82 889.348,154.66 766.652,234.949 740.492,360.148 714.336,485.34 794.621,608.039 919.816,634.199 1045.01,660.359 1167.71,580.07 1193.87,454.871"
         style="fill:#444678;fill-opacity:1;fill-rule:nonzero;stroke:none"
         id="path56" />
      <path
         d="m 580.699,1830.3 c 0,0 4.664,-59.92 15.336,-73.4 10.676,-13.48 295.633,42.13 299.231,62.52 3.593,20.39 -16.668,356.09 -16.668,356.09 L 580.699,1830.3"
         style="fill:#6d71c0;fill-opacity:1;fill-rule:nonzero;stroke:none"
         id="path58" />
      <path
         d="m 1879.59,1362.93 c 21.63,-103.51 -44.75,-204.95 -148.26,-226.58 -103.5,-21.63 -204.95,44.75 -226.57,148.26 -21.63,103.51 44.75,204.95 148.25,226.58 103.51,21.62 204.96,-44.75 226.58,-148.26"
         style="fill:#444678;fill-opacity:1;fill-rule:nonzero;stroke:none"
         id="path60" />
      <path
         d="m 2949.62,1652.19 c 21.62,-103.51 -44.75,-204.95 -148.26,-226.58 -103.51,-21.63 -204.95,44.75 -226.58,148.26 -21.63,103.51 44.75,204.95 148.26,226.58 103.51,21.63 204.95,-44.75 226.58,-148.26"
         style="fill:#3d102d;fill-opacity:1;fill-rule:nonzero;stroke:none"
         id="path62" />
      <path
         d="m 1819.99,1167.43 c 0,0 -213.49,250.83 -343.17,198.11 C 1400.87,1334.66 945.109,686.859 969.703,574.309 994.297,461.75 1225.78,289.93 1300.37,385.262 c 81.75,104.457 490.95,679.868 519.62,782.168"
         style="fill:#6d71c0;fill-opacity:1;fill-rule:nonzero;stroke:none"
         id="path64" />
      <path
         d="m 1207.59,371 c 150.86,225.629 297.34,454.16 446.25,681.07 39.21,59.75 78.57,119.41 118.3,178.81 5.15,7.72 -7.29,14.92 -12.41,7.26 -150.87,-225.63 -297.34,-454.16 -446.26,-681.07 -39.21,-59.75 -78.57,-119.41 -118.29,-178.808 -5.16,-7.711 7.29,-14.922 12.41,-7.262"
         style="fill:#3d102d;fill-opacity:1;fill-rule:nonzero;stroke:none"
         id="path66" />
      <path
         d="m 591.531,1458.75 c -1.551,7.41 -44.16,211.35 -10.914,227.82 33.25,16.48 291.16,64.02 316.707,47.12 25.547,-16.9 76,-223.26 76,-223.26 l -381.793,-51.68"
         style="fill:#444678;fill-opacity:1;fill-rule:nonzero;stroke:none"
         id="path68" />
      <path
         d="m 1653.97,1494.37 c 0,0 -21.77,-309.31 48.88,-451.84 70.65,-142.518 266.23,-432.28 364.6,-435.01 98.36,-2.731 889.97,276.441 876.32,408.63 -13.65,132.19 -237.6,785.73 -334.85,787.14 -487.94,7.04 -952.31,-245.75 -954.95,-308.92"
         style="fill:#6d71c0;fill-opacity:1;fill-rule:nonzero;stroke:none"
         id="path70" />
      <path
         d="m 951.176,1586.2 c 0,0 -391.961,-40.36 -417.86,-118.14 -25.894,-77.79 62.219,-954.048 153.848,-1023.888 91.629,-69.84 414.456,84.789 409.566,205.726 -5.36,132.543 -101.156,839.782 -145.554,936.302"
         style="fill:#6d71c0;fill-opacity:1;fill-rule:nonzero;stroke:none"
         id="path72" />
      <path
         d="m 1019.37,526.68 c -32.6,281.269 -85.765,559.86 -127.776,839.79 -11.121,74.1 -21.629,148.31 -30.258,222.74 -1.051,9.08 -15.434,9.19 -14.371,0 32.601,-281.27 85.769,-559.87 127.777,-839.8 11.121,-74.09 21.629,-148.301 30.258,-222.73 1.05,-9.078 15.44,-9.192 14.37,0"
         style="fill:#3d102d;fill-opacity:1;fill-rule:nonzero;stroke:none"
         id="path74" />
      <path
         d="m 1652.16,1497.24 c -14.54,-183.6 -5.88,-372.18 83.93,-537.388 27.13,-49.891 60.49,-96.032 97.95,-138.653 6.11,-6.961 16.25,3.231 10.16,10.16 -63.76,72.551 -113.89,155.93 -144.04,247.901 -27.68,84.4 -38.51,173.09 -39.66,261.65 -0.67,52.18 1.91,104.33 6.03,156.33 0.73,9.22 -13.65,9.18 -14.37,0"
         style="fill:#3d102d;fill-opacity:1;fill-rule:nonzero;stroke:none"
         id="path76" />
      <path
         d="m 2380.06,1701.38 c 9.63,-37.36 -88.97,-95.09 -220.23,-128.93 -131.26,-33.84 -245.48,-30.99 -255.11,6.37 -9.64,37.36 88.96,95.09 220.22,128.93 131.26,33.84 245.48,30.99 255.12,-6.37"
         style="fill:#444678;fill-opacity:1;fill-rule:nonzero;stroke:none"
         id="path78" />
      <path
         d="m 2538.45,770.629 c -125.22,206.121 -232.04,423.331 -318.29,648.571 -24.21,63.22 -46.77,127.06 -67.78,191.41 -2.86,8.76 -16.74,5.01 -13.86,-3.82 74.97,-229.6 170.4,-452.45 285.16,-664.989 32.59,-60.34 66.76,-119.813 102.37,-178.422 4.79,-7.891 17.22,-0.68 12.4,7.25"
         style="fill:#444678;fill-opacity:1;fill-rule:nonzero;stroke:none"
         id="path80" />
      <path
         d="m 1662.74,1475.8 c 79.85,49.15 165.72,87.46 255.66,113.97 8.85,2.6 5.09,16.48 -3.82,13.85 -91.07,-26.84 -178.24,-65.64 -259.09,-115.41 -7.87,-4.84 -0.66,-17.28 7.25,-12.41"
         style="fill:#3d102d;fill-opacity:1;fill-rule:nonzero;stroke:none"
         id="path82" />
      <path
         d="m 2351.02,1697.83 c 89.81,26.23 181.19,46.6 273.64,60.99 9.11,1.41 5.24,15.26 -3.82,13.85 -92.45,-14.38 -183.83,-34.75 -273.64,-60.98 -8.86,-2.59 -5.09,-16.46 3.82,-13.86"
         style="fill:#3d102d;fill-opacity:1;fill-rule:nonzero;stroke:none"
         id="path84" />
      <path
         d="m 833.988,2002.64 c 0,0 60.696,71.79 42.864,186.41 -11.09,71.3 -13.719,138.84 -11.336,200.21 2.078,53.6 17.004,137.75 -21.653,151.66 -38.656,13.91 -80.672,-1.39 -100.867,-53.53 -20.195,-52.14 -23.766,-103.83 -24.402,-171.24 0,0 -49.989,71.71 -104.391,137.95 -48.519,59.09 -210.195,287.71 -266.351,242.07 0,0 -43.321,-27.63 -8.786,-74.13 34.536,-46.5 160.661,-216.77 169.25,-243.81 8.59,-27.04 15.954,-23.1 0.926,-33.6 -15.031,-10.51 -65.625,62.83 -84.703,77.25 -15.762,11.91 -133.816,163.33 -217.269,181.54 -29.079,6.35 -56.024,-14.91 -56.973,-44.66 -0.559,-17.42 4.562,-39.62 24.859,-63.05 0,0 -57.035,35.8 -80.824,-9.32 -23.7929,-45.12 49.52,-142.86 68.703,-161.02 19.18,-18.15 127.813,-123.14 125.504,-147.86 -2.309,-24.73 -11.496,-16.76 -27.742,-10.11 -16.25,6.65 -156.949,81.28 -230.3009,45.59 -59.6797,-29.04 -23.50782,-81.94 37.5898,-103.21 33.9261,-11.8 156.5391,-53.6 213.1841,-115.93 56.64,-62.33 137.796,-120.75 165.293,-140.48 37.417,-26.84 60.992,-41.58 104.167,-42.44 59.204,-1.17 115.961,23.73 157.747,65.69 l 125.511,126.02"
         style="fill:#6d71c0;fill-opacity:1;fill-rule:nonzero;stroke:none"
         id="path86" />
      <path
         d="m 243.992,2026.99 c 79.778,115.6 161.227,230.71 276.582,314.05 40.25,29.08 83.699,53.65 129.977,71.76 8.515,3.33 4.808,17.23 -3.821,13.86 -153.042,-59.89 -268.121,-183.26 -361.496,-314.54 -18.273,-25.69 -35.746,-51.93 -53.652,-77.87 -5.266,-7.63 7.188,-14.83 12.41,-7.26"
         style="fill:#3d102d;fill-opacity:1;fill-rule:nonzero;stroke:none"
         id="path88" />
      <path
         d="m 151.301,2497.88 c 88.019,-78.92 176.043,-157.84 264.062,-236.76 6.867,-6.16 17.067,3.97 10.164,10.16 -88.023,78.92 -176.043,157.84 -264.066,236.76 -6.867,6.16 -17.066,-3.97 -10.16,-10.16"
         style="fill:#3d102d;fill-opacity:1;fill-rule:nonzero;stroke:none"
         id="path90" />
      <path
         d="m 710.656,2357.51 c 1.969,-34.81 3.938,-69.62 5.907,-104.43 1.757,2.31 3.515,4.62 5.273,6.93 -61.777,-23.68 -100.324,-85.12 -105.234,-149.88 -5.098,-67.24 32.539,-132.26 72.609,-183.34 22.644,-28.87 49.238,-56.39 81.441,-74.57 8.067,-4.55 15.321,7.86 7.254,12.41 -33.601,18.96 -61.023,48.68 -83.89,79.34 -23.821,31.93 -44.84,67.72 -56.375,106.05 -22.547,74.95 12.199,167.07 88.015,196.13 2.848,1.09 5.465,3.59 5.278,6.93 -1.969,34.81 -3.938,69.62 -5.907,104.43 -0.519,9.2 -14.894,9.26 -14.371,0"
         style="fill:#3d102d;fill-opacity:1;fill-rule:nonzero;stroke:none"
         id="path92" />
      <path
         d="m 258.988,2177.76 c 16,-13.26 32,-26.52 48,-39.78 2.985,-2.47 7.239,-2.92 10.16,0 2.551,2.55 3.004,7.68 0,10.16 -16,13.26 -32,26.52 -48,39.78 -2.984,2.47 -7.238,2.92 -10.16,0 -2.547,-2.55 -3.004,-7.68 0,-10.16"
         style="fill:#3d102d;fill-opacity:1;fill-rule:nonzero;stroke:none"
         id="path94" />
      <path
         d="m 721.5,2246.55 c 47.41,9.25 96.293,9.26 143.711,0.02 9.031,-1.76 12.902,12.08 3.816,13.85 -50.074,9.76 -101.273,9.76 -151.347,-0.01 -9.071,-1.77 -5.231,-15.63 3.82,-13.86"
         style="fill:#3d102d;fill-opacity:1;fill-rule:nonzero;stroke:none"
         id="path96" />
      <path
         d="m 579.738,1805.55 c 105.606,19.41 211.254,38.62 316.86,58.03 9.082,1.67 5.234,15.52 -3.821,13.86 -105.605,-19.42 -211.254,-38.62 -316.859,-58.03 -9.082,-1.67 -5.234,-15.53 3.82,-13.86"
         style="fill:#3d102d;fill-opacity:1;fill-rule:nonzero;stroke:none"
         id="path98" />
      <path
         d="m 4410.51,3099.23 c -3.63,339.36 -200.21,396.07 -403.59,409.92 -85.8,5.84 -360.1,4.06 -540.49,2.12 -180.4,1.94 -454.7,3.72 -540.49,-2.12 -203.38,-13.85 -437.93,-84.35 -441.55,-423.72 0,0 8.11,-2438.981 42.2,-2587.68 34.09,-148.699 121.75,-220.73 355.51,-225.539 h 1168.65 c 233.76,4.809 321.43,76.84 355.51,225.539 34.09,148.699 4.25,2601.48 4.25,2601.48"
         style="fill:#5f5fd3;fill-opacity:1;fill-rule:nonzero;stroke:none"
         id="path100" />
      <path
         d="m 4324.5,3103.91 c -2.72,248.39 -115.79,302.91 -323.5,316.63 -25.32,1.68 -86.74,3.67 -235.56,3.67 -83.45,0 -183.74,-0.61 -298.08,-1.8 h -1.87 c -114.33,1.19 -214.62,1.8 -298.07,1.8 -148.82,0 -210.24,-1.99 -235.56,-3.67 -251.01,-16.58 -359.11,-115.28 -361.46,-328.88 3.23,-942.69 16.57,-2384.82 40.06,-2493.851 20.09,-85 52.98,-150.379 273.43,-154.778 h 1165.08 c 220.45,4.399 253.33,69.77 273.34,154.469 23.1,110.949 13.61,1596.18 2.19,2506.41"
         style="fill:#ffffff;fill-opacity:1;fill-rule:nonzero;stroke:none"
         id="path102" />
      <path
         d="m 3219.25,3355.77 c -20.56,-0.09 -39.94,-11.69 -47.48,-30.55 -2.75,-6.87 -3.92,-14.53 -1.89,-22.56 7.33,-28.92 19.55,-31.33 73.31,-28.92 46.7,2.1 416.75,-2.99 509.01,-3.57 21.03,-0.13 25.67,14.52 33.54,33.74 3.03,7.39 4.38,15.88 2.35,25.25 -7.33,33.74 -59.92,24.1 -79.46,26.51 -17.1,2.11 -389.34,0.53 -489.38,0.1"
         style="fill:#444678;fill-opacity:1;fill-rule:nonzero;stroke:none"
         id="path104" />
      <path
         d="m 3732.36,1721.16 c 0,0 -1039.4,15.39 -1044.85,0 -21.05,-59.4 -24.19,-438.12 -14.12,-454.02 10.07,-15.9 1043.54,-17.78 1053.61,20.38 10.07,38.16 5.36,342.44 5.36,342.44 0,0 50.36,93.35 48.68,91.2 -1.68,-2.16 -48.68,0 -48.68,0"
         style="fill:#84d7f5;fill-opacity:1;fill-rule:nonzero;stroke:none"
         id="path106" />
      <path
         d="m 3618.79,1558.27 c -265.76,0 -531.52,0 -797.28,0 0,0 -5.08,27.12 0,32.98 5.09,5.86 793.35,3.11 797.28,-4.12 3.92,-7.23 0,-28.86 0,-28.86"
         style="fill:#6d71c0;fill-opacity:1;fill-rule:nonzero;stroke:none"
         id="path108" />
      <path
         d="m 3623.37,1463.35 c -265.76,0 -531.52,0 -797.27,0 0,0 -5.08,27.12 0,32.98 5.08,5.85 793.34,3.11 797.27,-4.12 3.93,-7.23 0,-28.86 0,-28.86"
         style="fill:#6d71c0;fill-opacity:1;fill-rule:nonzero;stroke:none"
         id="path110" />
      <path
         d="m 3618.79,1381.2 c -265.76,0 -531.52,0 -797.28,0 0,0 -5.08,27.12 0,32.98 5.09,5.86 793.35,3.11 797.28,-4.12 3.92,-7.23 0,-28.86 0,-28.86"
         style="fill:#6d71c0;fill-opacity:1;fill-rule:nonzero;stroke:none"
         id="path112" />
      <path
         d="m 3200.03,2954.47 c 0,0 1039.4,15.4 1044.85,0 21.04,-59.39 10.87,-417.32 0.8,-433.22 -10.07,-15.9 -1030.22,-38.58 -1040.29,-0.41 -10.07,38.16 -5.36,342.44 -5.36,342.44 0,0 -50.36,93.35 -48.68,91.19 1.68,-2.15 48.68,0 48.68,0"
         style="fill:#84d7f5;fill-opacity:1;fill-rule:nonzero;stroke:none"
         id="path114" />
      <path
         d="m 3313.6,2791.59 c 265.76,0 531.52,0 797.27,0 0,0 5.09,27.12 0,32.98 -5.08,5.85 -793.34,3.11 -797.27,-4.12 -3.93,-7.23 0,-28.86 0,-28.86"
         style="fill:#6d71c0;fill-opacity:1;fill-rule:nonzero;stroke:none"
         id="path116" />
      <path
         d="m 3309.02,2696.67 c 265.76,0 531.51,0 797.27,0 0,0 5.08,27.12 0,32.97 -5.08,5.86 -793.34,3.11 -797.27,-4.12 -3.93,-7.23 0,-28.85 0,-28.85"
         style="fill:#6d71c0;fill-opacity:1;fill-rule:nonzero;stroke:none"
         id="path118" />
      <path
         d="m 3313.6,2614.52 c 265.76,0 162.4,0 428.16,0 0,0 5.08,27.12 0,32.98 -5.09,5.85 -424.23,3.1 -428.16,-4.13 -3.93,-7.22 0,-28.85 0,-28.85"
         style="fill:#6d71c0;fill-opacity:1;fill-rule:nonzero;stroke:none"
         id="path120" />
      <path
         d="m 3178.49,2379.26 c 0,0 1039.4,15.4 1044.85,0 21.05,-59.39 10.87,-338.91 0.8,-354.81 -10.07,-15.9 -1030.21,-38.58 -1040.29,-0.41 -10.07,38.16 -5.36,264.03 -5.36,264.03 0,0 -50.36,93.35 -48.68,91.19 1.68,-2.15 48.68,0 48.68,0"
         style="fill:#84d7f5;fill-opacity:1;fill-rule:nonzero;stroke:none"
         id="path122" />
      <path
         d="m 3292.07,2216.38 c 265.75,0 531.51,0 797.27,0 0,0 5.08,27.12 0,32.98 -5.08,5.85 -793.35,3.1 -797.27,-4.13 -3.93,-7.22 0,-28.85 0,-28.85"
         style="fill:#6d71c0;fill-opacity:1;fill-rule:nonzero;stroke:none"
         id="path124" />
      <path
         d="m 3287.48,2121.46 c 265.76,0 531.52,0 797.27,0 0,0 5.09,27.12 0,32.97 -5.08,5.86 -793.34,3.11 -797.27,-4.12 -3.93,-7.23 0,-28.85 0,-28.85"
         style="fill:#6d71c0;fill-opacity:1;fill-rule:nonzero;stroke:none"
         id="path126" />
      <path
         d="m 3151.31,2840.99 c -0.02,-107.13 -97.32,-190.78 -204.45,-190.76 -107.13,0.02 -190.78,91.95 -190.76,199.08 0.02,107.13 90.51,182.53 197.64,182.51 107.13,-0.02 197.59,-83.7 197.57,-190.83"
         style="fill:#6d71c0;fill-opacity:1;fill-rule:nonzero;stroke:none"
         id="path128" />
      <path
         d="m 2831.36,2730.43 c 37.26,-73.74 187.88,-61.1 242.04,-8.39 0,0 -1.38,82.86 -103.63,91.95 -46.14,4.1 -123.89,-12.95 -138.41,-83.56"
         style="fill:#444678;fill-opacity:1;fill-rule:nonzero;stroke:none"
         id="path130" />
      <path
         d="m 3046.8,2905.35 c -5.34,-65.45 -51.93,-80.28 -101.16,-80.27 -49.23,0 -73.12,35.52 -73.11,80.31 0.01,44.78 35.91,81.08 85.14,81.07 49.23,-0.01 92.77,-36.47 89.13,-81.11"
         style="fill:#444678;fill-opacity:1;fill-rule:nonzero;stroke:none"
         id="path132" />
      <path
         d="m 4280.16,1620.95 c -0.02,-123.28 -111.98,-219.55 -235.27,-219.52 -123.28,0.02 -219.55,105.82 -219.52,229.11 0.02,123.28 104.15,210.05 227.43,210.02 123.29,-0.02 227.39,-96.33 227.36,-219.61"
         style="fill:#84d7f5;fill-opacity:1;fill-rule:nonzero;stroke:none"
         id="path134" />
      <path
         d="m 3881.22,1775.52 c 0,0 341.7,-4.49 382.77,-42.71 41.07,-38.22 14.22,-265.9 -37.93,-284.23 -52.47,-18.43 -340.5,12.38 -388.48,30.92 -30.25,11.69 -18.85,299.01 43.64,296.02"
         style="fill:#6d71c0;fill-opacity:1;fill-rule:nonzero;stroke:none"
         id="path136" />
      <path
         d="m 4163.72,1479.61 c -94.03,0 -251.21,18.67 -301.33,30.75 -3.53,17.95 -6.51,59.88 -1.56,115.63 6.24,70.16 19.52,102.77 26.09,112.75 187.08,-2.78 326.21,-19.02 351.93,-33 5.75,-10.2 12.62,-51.46 5.18,-114.12 -7.83,-66.02 -24.46,-101.17 -31.87,-108.88 -4.26,-0.97 -17.21,-3.13 -48.44,-3.13"
         style="fill:#260a1c;fill-opacity:1;fill-rule:nonzero;stroke:none"
         id="path138" />
      <path
         d="m 3938.84,1647.34 c 0.24,-11.87 9.1,-21.32 19.8,-21.1 10.7,0.21 19.18,10 18.94,21.87 -0.23,11.87 -9.1,21.32 -19.79,21.11 -10.7,-0.21 -19.18,-10.01 -18.95,-21.88"
         style="fill:#84d7f5;fill-opacity:1;fill-rule:nonzero;stroke:none"
         id="path140" />
      <path
         d="m 4141.75,1633.61 c 0.23,-11.87 9.1,-21.32 19.8,-21.1 10.7,0.21 19.18,10 18.94,21.87 -0.23,11.87 -9.1,21.32 -19.8,21.11 -10.7,-0.22 -19.18,-10.01 -18.94,-21.88"
         style="fill:#84d7f5;fill-opacity:1;fill-rule:nonzero;stroke:none"
         id="path142" />
      <path
         d="m 4001.82,1625.3 c 34.41,-22.2 79.94,-23.45 115.7,-3.66 8.09,4.48 0.85,16.89 -7.26,12.41 -31.44,-17.41 -71.06,-15.78 -101.19,3.66 -7.79,5.03 -15.01,-7.41 -7.25,-12.41"
         style="fill:#84d7f5;fill-opacity:1;fill-rule:nonzero;stroke:none"
         id="path144" />
      <path
         d="m 4239.29,1695.87 c 14.51,6.71 27.67,16.55 38.24,28.55 2.48,2.81 2.98,7.42 0,10.16 -2.72,2.49 -7.51,3.01 -10.16,0 -2.52,-2.85 -5.16,-5.58 -7.95,-8.17 -1.36,-1.25 -2.75,-2.47 -4.17,-3.66 l -2.15,-1.75 c -1.53,-1.24 0.67,0.48 -0.24,-0.2 l -1.23,-0.93 c -6.12,-4.53 -12.69,-8.4 -19.59,-11.59 -3.43,-1.58 -4.54,-6.79 -2.58,-9.83 2.27,-3.53 6.17,-4.27 9.83,-2.58"
         style="fill:#3d102d;fill-opacity:1;fill-rule:nonzero;stroke:none"
         id="path146" />
      <path
         d="m 4208.14,1478.15 1.49,-1.83 0.73,-0.93 -0.04,0.05 c 0.95,-1.26 1.89,-2.52 2.81,-3.8 1.88,-2.65 3.67,-5.36 5.36,-8.14 3.34,-5.46 6.28,-11.16 8.84,-17.03 1.51,-3.46 6.83,-4.51 9.83,-2.58 3.59,2.32 4.19,6.14 2.58,9.84 -5.47,12.52 -12.76,24.04 -21.44,34.58 -2.4,2.92 -7.71,2.67 -10.16,0 -2.85,-3.09 -2.56,-7.05 0,-10.16"
         style="fill:#3d102d;fill-opacity:1;fill-rule:nonzero;stroke:none"
         id="path148" />
      <path
         d="m 3842.26,1477.27 c 1.08,1.72 2.2,3.41 3.38,5.05 l 0.85,1.17 0.49,0.66 0.51,0.64 1.1,1.34 c 2.53,3.04 5.25,5.92 8.14,8.62 1.41,1.31 2.86,2.59 4.35,3.81 l 1.12,0.91 c 0.18,0.15 1.74,1.3 0.37,0.3 l 2.34,1.71 c 3.3,2.35 6.75,4.47 10.33,6.38 3.32,1.77 4.62,6.66 2.58,9.83 -2.18,3.38 -6.28,4.47 -9.83,2.58 -15.58,-8.31 -28.77,-20.79 -38.13,-35.74 -2,-3.19 -0.79,-8.06 2.57,-9.83 3.53,-1.87 7.7,-0.83 9.83,2.57"
         style="fill:#3d102d;fill-opacity:1;fill-rule:nonzero;stroke:none"
         id="path150" />
      <path
         d="m 3864.17,1769.59 c 2.09,-16.19 7.58,-31.68 16.82,-45.22 2.11,-3.1 6.41,-4.78 9.83,-2.58 3.08,1.99 4.84,6.51 2.58,9.83 -2.05,3 -3.94,6.09 -5.63,9.3 -0.9,1.71 -1.75,3.44 -2.55,5.2 -0.1,0.21 -0.91,2.06 -0.43,0.95 -0.38,0.89 -0.73,1.79 -1.07,2.69 -1.29,3.39 -2.39,6.85 -3.28,10.36 -0.42,1.64 -0.79,3.29 -1.12,4.95 -0.18,0.94 -0.36,1.89 -0.51,2.85 -0.04,0.25 -0.44,2.99 -0.27,1.67 -0.48,3.72 -2.96,7.38 -7.18,7.19 -3.48,-0.16 -7.7,-3.19 -7.19,-7.19"
         style="fill:#3d102d;fill-opacity:1;fill-rule:nonzero;stroke:none"
         id="path152" />
      <path
         d="m 2570.4,1715.79 -0.04,0.2 1.65,0.78 1.59,-0.48 c -2.04,-0.33 -3.2,-0.5 -3.2,-0.5 m -0.97,38.23 c -2.88,1.25 -5.42,3.02 -7.5,5.1 l -3.57,18.25 1.63,2.53 c 2.59,0.99 5.18,1.45 7.65,1.45 4.76,0 9.08,-1.7 12.17,-4.56 0.07,-6.66 0.15,-13.32 0.22,-19.96 -3.52,-0.64 -7.05,-1.6 -10.6,-2.81 m 2.36,65.56 c -9.5,0 -19.43,11.35 -15.03,23.04 3.71,3.13 7.47,4.72 11.37,4.72 3.51,0 7.13,-1.3 10.94,-3.92 0.08,-7.04 0.15,-13.94 0.23,-20.97 -2.26,-2 -4.87,-2.87 -7.51,-2.87 m -28.86,36.74 -4.14,21.22 c 7.24,-1.78 13.14,-8.22 14.04,-16.66 -2.64,-3.13 -6.13,-4.38 -9.9,-4.56 m 25.01,30.39 c -5.58,0 -10.53,3.13 -11.59,10.49 0.29,11.49 4.83,16.25 10.91,16.25 3.38,0 7.25,-1.48 11.12,-4.09 0.07,-6.33 0.13,-12.77 0.2,-19.09 -3.23,-2.27 -7.06,-3.56 -10.64,-3.56 m -30.08,29.45 -0.33,0.15 2.64,2.67 c -0.76,-0.93 -1.54,-1.87 -2.31,-2.82 m 33.43,34.25 6.61,6.67 c 0.01,-1.43 0.03,-2.82 0.04,-4.24 -1.83,-1.07 -4.03,-1.91 -6.65,-2.43"
         style="fill:#3d102d;fill-opacity:1;fill-rule:nonzero;stroke:none"
         id="path154" />
      <path
         d="m 1317.25,2796.51 c 0,0 1158.57,245.84 1326.6,148.02 168.04,-97.83 251.19,-888.04 88.9,-989.82 -163.28,-102.41 -1160.53,-218.27 -1336.87,-192.25 -111.21,16.41 -292.15,996.4 -78.63,1034.05"
         style="fill:#6d71c0;fill-opacity:1;fill-rule:nonzero;stroke:none"
         id="path158" />
      <path
         d="m 2498.32,2011.97 c -317.9,-71.83 -863.49,-128.77 -1042.16,-126.23 -25.65,57.99 -67.73,197.45 -93.58,389.71 -32.53,241.93 -12.55,362.32 2.05,401.07 634.57,133.5 1117.28,184.89 1214.93,157.29 27.23,-30.11 81.96,-164.34 104.69,-381.85 23.94,-229.15 -5.41,-360.68 -24.58,-392.39 -13.65,-6.54 -55.8,-23.75 -161.35,-47.6"
         style="fill:#444678;fill-opacity:1;fill-rule:nonzero;stroke:none"
         id="path160" />
      <path
         d="m 1609.98,2407.22 c 9.86,-39.95 47.04,-65.12 83.05,-56.23 36,8.89 57.19,48.48 47.32,88.43 -9.86,39.94 -47.04,65.11 -83.05,56.22 -36,-8.9 -57.19,-48.48 -47.32,-88.42"
         style="fill:#84d7f5;fill-opacity:1;fill-rule:nonzero;stroke:none"
         id="path162" />
      <path
         d="m 2306.39,2515.79 c 9.87,-39.94 47.05,-65.11 83.06,-56.22 36,8.89 57.19,48.48 47.33,88.43 -9.87,39.94 -47.05,65.11 -83.06,56.22 -36,-8.9 -57.19,-48.49 -47.33,-88.43"
         style="fill:#84d7f5;fill-opacity:1;fill-rule:nonzero;stroke:none"
         id="path164" />
      <path
         d="m 1845.31,2397.62 c 127.02,-46.82 275.64,-17.87 376.39,72.3 6.91,6.19 -3.29,16.32 -10.16,10.17 -97.14,-86.94 -240.26,-113.63 -362.41,-68.61 -8.69,3.2 -12.44,-10.68 -3.82,-13.86"
         style="fill:#84d7f5;fill-opacity:1;fill-rule:nonzero;stroke:none"
         id="path166" />
      <path
         d="m 2575.2,2812.76 c 22.18,17.08 42.08,37.06 57.74,60.35 13.43,19.99 24.04,43.32 24.3,67.79 0.11,9.25 -14.27,9.26 -14.37,0 -0.24,-21.97 -10.32,-42.64 -22.34,-60.54 -14.17,-21.09 -32.48,-39.7 -52.58,-55.19 -7.23,-5.56 -0.08,-18.05 7.25,-12.41"
         style="fill:#3d102d;fill-opacity:1;fill-rule:nonzero;stroke:none"
         id="path168" />
      <path
         d="m 2657.78,2056.95 c 15.82,-12.23 31.36,-24.87 45.67,-38.85 14.17,-13.83 26.95,-28.94 38.66,-44.89 2.29,-3.13 6.23,-4.68 9.83,-2.58 3.08,1.8 4.88,6.69 2.58,9.83 -12.18,16.6 -25.31,32.47 -40,46.92 -14.57,14.33 -30.43,27.24 -46.58,39.73 -3.06,2.37 -7.17,2.99 -10.16,0 -2.47,-2.48 -3.09,-7.78 0,-10.16"
         style="fill:#3d102d;fill-opacity:1;fill-rule:nonzero;stroke:none"
         id="path170" />
      <path
         d="m 1396.59,1764.12 c 18.49,52.68 50.79,99.63 93.01,136.11 7.01,6.05 -3.19,16.18 -10.16,10.16 -44.12,-38.11 -77.42,-87.48 -96.71,-142.45 -3.07,-8.74 10.81,-12.5 13.86,-3.82"
         style="fill:#3d102d;fill-opacity:1;fill-rule:nonzero;stroke:none"
         id="path172" />
      <path
         d="m 4521.01,2403.22 c 0,0 33.87,80.24 10.39,127.57 -30.43,61.33 -180.2,167.42 -246.38,147.56 -66.19,-19.85 -53.14,-104.59 -20.25,-122.5 32.88,-17.9 121.3,-45.84 148.06,-71.61 24.24,-23.35 12.59,-42.78 12.59,-42.78 0,0 -174.63,71.15 -227.23,18.94 -52.61,-52.21 1.28,-94.25 1.28,-94.25 0,0 -84.72,-71.63 21.51,-139.61 0,0 -7.72,-57.15 33.87,-92.02 41.59,-34.87 166.83,-77.15 166.83,-77.15 l 0.01,-111.65 c 54.77,-12.41 174.23,154.39 132.03,209.61 0,0 25.89,74.29 -2.57,119.42 l -16.36,20.09 c 0,0 32.42,73.86 -13.78,108.38"
         style="fill:#6d71c0;fill-opacity:1;fill-rule:nonzero;stroke:none"
         id="path174" />
      <path
         d="m 4417.27,2441.24 c 40.36,-8.46 78.43,-24.7 112.47,-47.95 7.66,-5.23 14.86,7.21 7.26,12.41 -34.96,23.87 -74.48,40.71 -115.91,49.4 -9.02,1.89 -12.88,-11.96 -3.82,-13.86"
         style="fill:#3d102d;fill-opacity:1;fill-rule:nonzero;stroke:none"
         id="path176" />
      <path
         d="m 4200.08,2355.7 c 19.9,24.62 51.67,27.34 81.03,22.73 29.41,-4.61 58.69,-13.53 87,-22.56 56.55,-18.04 110.98,-41.88 162.82,-70.76 8.08,-4.5 15.34,7.91 7.25,12.41 -57.44,32 -118.17,57.94 -181.17,76.82 -50.82,15.23 -126.74,41.45 -167.09,-8.48 -5.76,-7.13 4.34,-17.36 10.16,-10.16"
         style="fill:#3d102d;fill-opacity:1;fill-rule:nonzero;stroke:none"
         id="path178" />
      <path
         d="m 4226.7,2219.71 c 37.19,58.37 115.7,31.23 166.36,10.86 30.01,-12.08 60.01,-24.19 90.02,-36.29 25.91,-10.44 57.83,-19.66 71.24,-46.52 4.13,-8.27 16.53,-1 12.41,7.26 -13.18,26.41 -41.1,37.49 -66.97,47.93 -37.58,15.17 -75.1,30.52 -112.79,45.45 -55.66,22.04 -134.01,39.25 -172.68,-21.44 -4.98,-7.82 7.45,-15.04 12.41,-7.25"
         style="fill:#3d102d;fill-opacity:1;fill-rule:nonzero;stroke:none"
         id="path180" />
      <path
         d="m 4421.33,2047.6 c 58.97,19.1 99.89,72.99 102.45,134.95 0.39,9.25 -13.98,9.23 -14.37,0 -2.29,-55.38 -39.18,-104.02 -91.9,-121.09 -8.76,-2.84 -5.02,-16.72 3.82,-13.86"
         style="fill:#3d102d;fill-opacity:1;fill-rule:nonzero;stroke:none"
         id="path182" />
      <path
         d="m 1272.25,2768.01 c 25.93,-40.5 62.67,-73.58 105.88,-94.77 8.27,-4.06 15.56,8.33 7.25,12.41 -41.04,20.12 -76.06,51.09 -100.72,89.62 -4.97,7.76 -17.42,0.56 -12.41,-7.26"
         style="fill:#3d102d;fill-opacity:1;fill-rule:nonzero;stroke:none"
         id="path184" />
      <path
         d="m 3671.94,1154.92 c 0,0 -600.2,15.39 -605.66,0 -21.04,-59.4 -6.39,-292.881 3.68,-308.779 10.07,-15.899 583.54,-44.11 593.61,-5.95 10.07,38.161 8.37,223.529 8.37,223.529 0,0 50.36,93.35 48.68,91.2 -1.68,-2.16 -48.68,0 -48.68,0"
         style="fill:#84d7f5;fill-opacity:1;fill-rule:nonzero;stroke:none"
         id="path186" />
      <path
         d="m 3271.53,977.629 c 0,-28.84 -21.74,-39.109 -48.57,-39.109 -26.83,0 -48.58,10.269 -48.58,39.109 0,28.831 21.75,52.211 48.58,52.211 26.83,0 48.57,-23.38 48.57,-52.211"
         style="fill:#6d71c0;fill-opacity:1;fill-rule:nonzero;stroke:none"
         id="path188" />
      <path
         d="m 3407.95,977.629 c 0,-28.84 -21.75,-39.109 -48.58,-39.109 -26.83,0 -48.58,10.269 -48.58,39.109 0,28.831 21.75,52.211 48.58,52.211 26.83,0 48.58,-23.38 48.58,-52.211"
         style="fill:#6d71c0;fill-opacity:1;fill-rule:nonzero;stroke:none"
         id="path190" />
      <path
         d="m 3544.36,977.629 c 0,-28.84 -21.75,-39.109 -48.58,-39.109 -26.83,0 -48.58,10.269 -48.58,39.109 0,28.831 21.75,52.211 48.58,52.211 26.83,0 48.58,-23.38 48.58,-52.211"
         style="fill:#6d71c0;fill-opacity:1;fill-rule:nonzero;stroke:none"
         id="path192" />
      <path
         d="m 4145.87,3181.52 c -18.08,0 -32.74,14.66 -32.74,32.74 0,18.08 14.66,32.74 32.74,32.74 18.08,0 32.74,-14.66 32.74,-32.74 0,-18.08 -14.66,-32.74 -32.74,-32.74"
         style="fill:#6d71c0;fill-opacity:1;fill-rule:nonzero;stroke:none"
         id="path194" />
      <path
         d="m 4145.87,3094.22 c -18.08,0 -32.74,14.66 -32.74,32.74 0,18.08 14.66,32.74 32.74,32.74 18.08,0 32.74,-14.66 32.74,-32.74 0,-18.08 -14.66,-32.74 -32.74,-32.74"
         style="fill:#6d71c0;fill-opacity:1;fill-rule:nonzero;stroke:none"
         id="path196" />
      <path
         d="m 2779.79,3212.87 c -19.99,-17.01 -40.24,-34.1 -58.67,-52.82 -3.3,-3.34 -7.55,-7.12 -9.35,-11.55 -1.9,-4.71 0.4,-8.41 3.16,-12.1 9.16,-12.22 19.92,-23.35 30.28,-34.54 8.7,-9.4 17.47,-18.73 26.33,-27.98 6.41,-6.7 16.56,3.48 10.16,10.16 -17.37,18.13 -34.87,36.31 -51.01,55.55 -1.65,1.95 -3.19,3.8 -4.14,5.12 l -1.25,1.79 c -1.46,1.91 -0.29,0.59 -0.21,-1.54 -0.04,0.96 -0.12,-3.45 -0.4,-2.57 l 0.38,0.64 0.81,1.05 c 1.71,2.02 3.55,3.93 5.4,5.81 10.72,10.88 22.23,21.01 33.67,31.11 8.28,7.3 16.6,14.55 25.01,21.7 7.05,6.01 -3.16,16.13 -10.17,10.17"
         style="fill:#3d102d;fill-opacity:1;fill-rule:nonzero;stroke:none"
         id="path198" />
      <path
         d="m 2064.29,607.309 c -0.96,0 -1.95,0.05 -2.95,0.132 0.08,0.188 0.17,0.379 0.26,0.559 1.98,-0.27 3.93,-0.43 5.85,-0.48 v 0 0 c -1.02,-0.149 -2.07,-0.211 -3.16,-0.211"
         style="fill:#dfacb1;fill-opacity:1;fill-rule:nonzero;stroke:none"
         id="path200" />
      <path
         d="m 2239,648.859 c 1.63,0.512 3.26,1.02 4.9,1.539 0.07,-0.046 0.15,-0.109 0.22,-0.168 -1.71,-0.46 -3.42,-0.91 -5.12,-1.371 m 88.3,24.582 c -0.14,1.911 0.13,3.5 0.72,4.797 4.25,1.461 8.53,2.953 12.83,4.453 2.71,-0.511 5.44,-1.543 7.77,-2.992 -7.08,-2.097 -14.2,-4.187 -21.32,-6.258 m 42.92,15.43 c -2.69,0 -4.81,0.699 -6.58,1.848 4.53,1.613 9.08,3.242 13.65,4.883 -2.04,-2.223 -4.07,-4.454 -6.13,-6.704 -0.32,-0.019 -0.63,-0.027 -0.94,-0.027 m 53.43,14.238 c -0.53,4.442 2.15,8.262 5.95,11.723 4.55,1.707 9.1,3.418 13.67,5.156 3.17,-1.828 4.34,-4.929 5.52,-8.418 -8.14,-2.82 -16.56,-5.64 -25.14,-8.461 m 48.21,23.77 c -1.96,0 -4.16,0.473 -6.59,1.519 5.61,2.172 11.21,4.344 16.83,6.543 -1.18,-4.441 -4.76,-8.062 -10.24,-8.062"
         style="fill:#3d102d;fill-opacity:1;fill-rule:nonzero;stroke:none"
         id="path202" />
      <path
         d="m 2374.23,1688.21 c -0.89,0 -1.81,0.15 -2.74,0.41 -0.28,5.13 -0.56,10.07 -0.84,14.85 2.59,0.73 5.18,1.45 7.78,2.17 0.7,-1.36 1.25,-2.79 1.63,-4.26 0.73,-2.84 0.84,-5.79 0.35,-8.84 -1.29,-3.06 -3.57,-4.33 -6.18,-4.33"
         style="fill:#3d102d;fill-opacity:1;fill-rule:nonzero;stroke:none"
         id="path206" />
      <path
         d="m 2505.85,825.262 c -14.32,4.957 -16.37,15.379 -12.69,21.808 4.2,-7.281 8.44,-14.558 12.69,-21.808 m -35.83,33.148 c -3.41,5.969 -6.8,11.949 -10.18,17.93 3.19,4.019 6.95,6.84 11.34,9.23 3.65,-6.468 7.31,-12.929 11,-19.39 -4.88,-4.2 -8.42,-7.141 -12.16,-7.77 m -20.16,35.711 c -4.02,7.188 -8.01,14.41 -11.98,21.629 0.63,0.422 1.27,0.84 1.91,1.27 9.85,-4.879 13.19,-12.2 10.22,-22.809 -0.05,-0.031 -0.1,-0.063 -0.15,-0.09 M 2432.96,955 c -0.96,0.391 -1.96,0.871 -3,1.449 -6.3,4.832 -7.53,10.25 -5.75,14.91 2.9,-5.461 5.82,-10.918 8.75,-16.359 M 2403,991.281 c -2.07,0 -4.16,0.34 -6.1,0.989 -2.19,4.179 -4.36,8.37 -6.53,12.56 2.07,6.05 3.35,11.84 8.53,14.88 4.43,-8.59 8.9,-17.2 13.38,-25.769 -2.62,-1.793 -5.93,-2.66 -9.28,-2.66 m -23.73,35.179 c -4.5,8.82 -8.96,17.67 -13.39,26.51 1.21,0.75 2.58,1.57 4.15,2.5 4.62,-2.72 9.5,-5.58 15.2,-8.95 0.6,-1.18 1.2,-2.37 1.8,-3.55 0,-4 0,-7.83 0,-12.27 -2.57,-1.39 -5.14,-2.8 -7.76,-4.24"
         style="fill:#3d102d;fill-opacity:1;fill-rule:nonzero;stroke:none"
         id="path208" />
      <path
         d="m 2370.65,1703.47 c -0.29,4.92 -0.57,9.66 -0.85,14.22 0.59,0.08 1.18,0.12 1.79,0.12 4.55,0 9.39,-2.21 12.88,-7.27 -0.25,-1.27 -0.7,-2.43 -1.2,-3.56 -1.61,-0.44 -3.23,-0.89 -4.84,-1.34 -2.6,-0.72 -5.19,-1.44 -7.78,-2.17 m 29.85,19.6 c -2.74,0 -4.91,0.63 -6.55,1.71 8.47,2.27 16.95,4.48 25.44,6.65 -0.99,-4.59 -5.76,-8.29 -14.97,-8.29 -0.57,0 -1.16,0.02 -1.77,0.05 -0.75,-0.09 -1.46,-0.12 -2.15,-0.12 m 57.55,3.07 c -2.09,2.89 -3.49,6.42 -4.43,10.5 1.98,1.28 3.79,2.9 5.54,4.52 5.8,1.36 11.6,2.7 17.41,4.02 0.9,-0.77 1.84,-1.72 2.81,-2.86 0,-3.81 0,-7.43 0,-11.23 -7.11,-1.61 -14.22,-3.26 -21.33,-4.95"
         style="fill:#3d102d;fill-opacity:1;fill-rule:nonzero;stroke:none"
         id="path210" />
      <path
         d="m 1566.72,754.531 c -0.7,0 -1.39,0.028 -2.09,0.09 4.45,6.469 8.9,12.957 13.34,19.438 0.33,-0.52 0.63,-1.028 0.91,-1.528 l -11.31,-17.992 c -0.28,-0.008 -0.57,-0.008 -0.85,-0.008 m 22.16,33.891 c -0.22,0.207 -0.45,0.418 -0.66,0.629 4.69,6.879 9.36,13.738 14.02,20.597 l -13.36,-21.226"
         style="fill:#dfacb1;fill-opacity:1;fill-rule:nonzero;stroke:none"
         id="path214" />
      <path
         d="m 1627.98,1354.7 c -4.07,0 -7.88,1.83 -10.47,6.53 -0.42,9.9 5.64,15.12 12.11,16.48 5.91,-2.36 10.38,-7.58 12.07,-16.98 l -0.29,-0.56 c -3.93,-3.16 -8.85,-5.47 -13.42,-5.47"
         style="fill:#3d102d;fill-opacity:1;fill-rule:nonzero;stroke:none"
         id="path216" />
      <path
         d="m 1445.42,759.141 c 0.27,0.418 0.54,0.828 0.81,1.25 -0.24,-0.422 -0.51,-0.84 -0.81,-1.25 m 23.3,27.699 c -1.67,0 -3.26,0.289 -4.75,0.801 4.27,6.558 8.55,13.14 12.82,19.699 2.67,-4.942 2.85,-10.731 1.9,-17.11 -3.43,-2.378 -6.83,-3.39 -9.97,-3.39 m 29.41,33.121 c -3.76,0 -7.45,1.328 -10.19,4.519 4.58,7.04 9.18,14.102 13.76,21.141 0.2,0 0.39,0.008 0.59,0.008 1.01,0 2.04,-0.078 3.09,-0.238 4.41,-2.532 7.03,-5.301 8.28,-8.051 -3.63,-5.578 -7.26,-11.16 -10.9,-16.738 -1.51,-0.422 -3.07,-0.641 -4.63,-0.641 m 26.09,33.609 c -3.77,3.578 -5.81,9.942 -3.42,18.071 5.35,2.73 9.75,4.949 14.16,7.199 1.67,-0.789 2.8,-1.899 3.65,-3.168 -4.79,-7.363 -9.6,-14.742 -14.39,-22.102 m 26.66,40.942 c -0.41,1.039 -0.77,2.168 -1.08,3.386 1.95,3.481 7.74,4.704 7.39,10.153 1.95,3.57 4.26,5.578 6.68,6.398 -4.32,-6.64 -8.67,-13.301 -12.99,-19.937 m 22.65,61.308 c 1.46,2.239 2.92,4.481 4.38,6.719 -0.48,-3.398 -1.82,-5.519 -4.38,-6.719 m 23.48,26.801 c -1.92,0.399 -3.48,1.039 -4.75,1.867 5.2,7.953 10.38,15.862 15.58,23.812 1.35,-2.43 2.55,-5.54 3.61,-9.32 -0.92,0 -1.84,0 -2.76,0 2.39,-9.07 -5.24,-11.789 -11.68,-16.359 m 33.11,39.309 c -3.95,0 -7.84,1.78 -10.28,4.68 4.74,7.23 9.49,14.47 14.23,21.7 4.06,-2.9 6.83,-6.5 9.72,-9.55 -0.05,-0.82 -0.13,-1.61 -0.23,-2.37 -2.98,-4.54 -5.95,-9.08 -8.93,-13.62 -1.46,-0.57 -2.99,-0.84 -4.51,-0.84 m 27.72,36.23 c -3.22,3.29 -6.21,6.34 -9.1,9.28 4.17,9.65 12.32,11.07 21.07,13.65 0.57,-0.77 1.11,-1.5 1.64,-2.21 -4.54,-6.9 -9.08,-13.82 -13.61,-20.72"
         style="fill:#3d102d;fill-opacity:1;fill-rule:nonzero;stroke:none"
         id="path220" />
      <path
         d="m 1697.62,1089.64 c -0.27,0.02 -0.53,0.04 -0.8,0.07 -2.11,6.82 -4.12,13.65 -6.03,20.52 0.39,-0.04 0.77,-0.07 1.16,-0.11 1.93,-7.03 3.82,-13.84 5.67,-20.48"
         style="fill:#6462b7;fill-opacity:1;fill-rule:nonzero;stroke:none"
         id="path222" />
      <path
         d="m 1718.56,994.551 c -0.69,1.48 -1.38,2.949 -2.06,4.429 0.85,0 1.71,0 2.56,0 -1.11,4.5 -0.24,7.84 1.68,10.17 1.44,-4.85 2.25,-7.56 2.25,-7.56 l -4.43,-7.039 m -11.75,26.579 c -3.31,7.96 -6.46,15.96 -9.45,24 0.17,0 0.33,0 0.5,0 7.96,0 15.79,-1.51 14.17,-12.26 0.25,-4.8 1.01,-9.92 -4.38,-11.38 -0.28,-0.12 -0.56,-0.24 -0.84,-0.36 m -9.99,68.58 c -3.04,0.27 -6.18,0.76 -9.56,1.01 -1.84,6.22 -1.15,12.32 -0.27,19.9 1.36,-0.14 2.57,-0.26 3.8,-0.39 1.91,-6.87 3.92,-13.7 6.03,-20.52 m -24.36,36.81 c -1.55,6.34 -3.03,12.71 -4.42,19.08 17.01,-11.61 15.23,-11.08 4.42,-19.08 m -12.86,63.84 c -0.03,0 -0.05,0 -0.07,0 -1.11,6.82 -2.14,13.64 -3.1,20.49 1.7,1.48 4.03,1.91 7.84,1.91 0.3,0 0.61,0 0.92,-0.01 1.57,-6.42 3.17,-12.9 4.8,-19.41 -3.62,-1.59 -7.25,-2.98 -10.39,-2.98 m -4.76,67.22 c -1.25,1.57 -2.59,3.45 -4.27,5.9 -0.03,0.36 -0.06,0.71 -0.09,1.08 0.49,1.8 1.15,3.32 1.87,4.72 0.79,-3.82 1.63,-7.74 2.49,-11.7"
         style="fill:#3d102d;fill-opacity:1;fill-rule:nonzero;stroke:none"
         id="path224" />
      <path
         d="m 936.797,464.332 c 45.601,20.566 88.403,50.969 123.013,87.098 16.03,16.742 31.01,35.5 40.7,56.691 11.79,25.789 13.67,54.141 10.81,82.039 -3.41,33.371 -11.04,66.602 -16.15,99.781 -6.5,42.2 -12.69,84.45 -18.81,126.7 -6.91,47.711 -13.72,95.449 -20.26,143.209 -1.25,9.13 -15.1,5.24 -13.86,-3.82 11.05,-80.78 22.69,-161.491 34.84,-242.108 3.97,-26.363 7.69,-52.82 12.58,-79.031 5.43,-29.11 11.38,-58.852 7.15,-88.532 -3.82,-26.8 -17.15,-49.937 -34.3,-70.437 -35.35,-42.231 -82.873,-76.582 -132.967,-99.184 -8.418,-3.797 -1.121,-16.187 7.254,-12.406"
         style="fill:#3d102d;fill-opacity:1;fill-rule:nonzero;stroke:none"
         id="path226" />
      <path
         d="m 3195.32,3130.11 c 197.2,0 394.41,0 591.61,0 9.25,0 9.27,14.37 0,14.37 -197.2,0 -394.41,0 -591.61,0 -9.25,0 -9.26,-14.37 0,-14.37"
         style="fill:#3d102d;fill-opacity:1;fill-rule:nonzero;stroke:none"
         id="path228" />
      <path
         d="m 3551.17,594.711 c 0,-36.481 -29.57,-66.051 -66.04,-66.051 -36.47,0 -66.04,29.57 -66.04,66.051 0,36.469 29.57,66.039 66.04,66.039 36.47,0 66.04,-29.57 66.04,-66.039"
         style="fill:#84d7f5;fill-opacity:1;fill-rule:nonzero;stroke:none"
         id="path230" />
      <path
         d="m 3072.51,659.609 c 10.23,2.891 12.11,-5.449 12.7,-16.058 1.73,-31.172 4.34,-100.199 -5.58,-113.063 -8.17,-10.597 -104.27,48.352 -102.2,61.512 1.59,10.059 62.25,58.309 95.08,67.609"
         style="fill:#84d7f5;fill-opacity:1;fill-rule:nonzero;stroke:none"
         id="path232" />
      <path
         d="m 3997.25,543.512 h -105.66 c -4.52,0 -8.19,3.668 -8.19,8.199 v 105.66 c 0,4.52 3.67,8.188 8.19,8.188 h 105.66 c 4.53,0 8.19,-3.668 8.19,-8.188 v -105.66 c 0,-4.531 -3.66,-8.199 -8.19,-8.199"
         style="fill:#84d7f5;fill-opacity:1;fill-rule:nonzero;stroke:none"
         id="path234" />
      <path
         d="m 1306.7622,3452.9949 c 0,0 -287.0707,7.361 -289.6821,0 -10.0633,-28.4105 -3.0563,-140.0825 1.7601,-147.6864 4.8164,-7.6043 279.1023,-21.0974 283.9187,-2.8458 4.8164,18.2521 4.0033,106.912 4.0033,106.912 0,0 24.0868,44.6486 23.2833,43.6202 -0.8036,-1.0331 -23.2833,0 -23.2833,0"
         style="fill:#84d7f5;fill-opacity:1;fill-rule:nonzero;stroke:none;stroke-width:0.478292"
         id="path6251" />
      <text
         xml:space="preserve"
         style="font-style:normal;font-variant:normal;font-weight:bold;font-stretch:normal;font-size:159.29px;line-height:1.25;font-family:Arial;-inkscape-font-specification:'Arial Bold';text-align:center;word-spacing:0.132741px;text-anchor:middle;stroke-width:13.2741"
         x="1171.5883"
         y="-3317.7891"
         id="text5523"
         transform="scale(1,-1)"><tspan
           id="tspan5521"
           style="font-style:normal;font-variant:normal;font-weight:bold;font-stretch:normal;font-family:Arial;-inkscape-font-specification:'Arial Bold';stroke-width:13.2741"
           x="1171.5883"
           y="-3317.7891">EN</tspan></text>
      <path
         d="m 1353.368,3302.8469 c 0,0 287.0708,7.361 289.6822,0 10.0633,-28.4105 3.0563,-140.0825 -1.7601,-147.6864 -4.8164,-7.6043 -279.1024,-21.0974 -283.9188,-2.8458 -4.8164,18.2521 -4.0033,106.912 -4.0033,106.912 0,0 -24.0868,44.6486 -23.2832,43.6202 0.8035,-1.0331 23.2832,0 23.2832,0"
         style="fill:#ff8080;fill-opacity:1;fill-rule:nonzero;stroke:none;stroke-width:0.478292"
         id="path6253" />
      <text
         xml:space="preserve"
         style="font-style:normal;font-variant:normal;font-weight:bold;font-stretch:normal;font-size:159.29px;line-height:1.25;font-family:Arial;-inkscape-font-specification:'Arial Bold';text-align:center;word-spacing:0.132741px;text-anchor:middle;stroke-width:13.2741"
         x="1489.7087"
         y="-3167.6411"
         id="text6257"
         transform="scale(1,-1)"><tspan
           id="tspan6255"
           style="font-style:normal;font-variant:normal;font-weight:bold;font-stretch:normal;font-family:Arial;-inkscape-font-specification:'Arial Bold';stroke-width:13.2741"
           x="1489.7087"
           y="-3167.6411">ID</tspan></text>
    </g>
  </g>
</svg>
